<svg xmlns="http://www.w3.org/2000/svg" width="222.802" height="208.614" viewBox="0 0 222.802 208.614">
  <g id="estaciones" transform="translate(-1195 -1405)">
    <g id="Grupo_5936" data-name="Grupo 5936" transform="translate(-24 -45.141)">
      <g id="Grupo_5934" data-name="Grupo 5934" transform="translate(281 0.141)" opacity="0.196">
        <g id="Rect치ngulo_2984" data-name="Rect치ngulo 2984" transform="translate(938 1450)" fill="none" stroke="#fff" stroke-width="1">
          <rect width="222.802" height="208.615" rx="5" stroke="none"/>
          <rect x="0.5" y="0.5" width="221.802" height="207.615" rx="4.5" fill="none"/>
        </g>
        <rect id="Rect치ngulo_3059" data-name="Rect치ngulo 3059" width="222" height="207" rx="5" transform="translate(938 1450)" fill="#fff" opacity="0.045"/>
      </g>
      <g id="Grupo_5935" data-name="Grupo 5935" transform="translate(8.636 -12.076)">
        <path id="Trazado_41143" data-name="Trazado 41143" d="M-68.58-13.3v1.216h3.135V0h1.368V-13.3Zm8.721,11.324A.994.994,0,0,0-60.866-.95a.961.961,0,0,0,.684.969l-.646,2.755h.912l.8-2.622a3.1,3.1,0,0,0,.266-1.1A.994.994,0,0,0-59.859-1.976ZM-57.921-13.3v1.216h3.135V0h1.368V-13.3Zm6.859,0v1.216h3.135V0h1.368V-13.3Zm9.443,12.084L-37.1-5.662c1.786-1.748,2.185-2.888,2.185-4.161,0-2.223-1.71-3.591-4.408-3.591a5.976,5.976,0,0,0-4.712,1.9l.969.836a4.515,4.515,0,0,1,3.629-1.482c2.033,0,3.116.95,3.116,2.489,0,.912-.285,1.805-1.786,3.287L-43.633-.969V0H-34.3V-1.216ZM-18-5a4.762,4.762,0,0,0-4.845-5.073A4.813,4.813,0,0,0-27.73-5,4.949,4.949,0,0,0-22.486.095a4.92,4.92,0,0,0,3.857-1.634l-.76-.874A3.939,3.939,0,0,1-22.448-1.1a3.7,3.7,0,0,1-3.933-3.477h8.36C-18.021-4.731-18-4.883-18-5Zm-4.845-3.914a3.476,3.476,0,0,1,3.553,3.325h-7.087A3.471,3.471,0,0,1-22.847-8.911ZM-7.419-9.994v1.976a4.353,4.353,0,0,0-3.857-2.052A4.835,4.835,0,0,0-16.254-5,4.84,4.84,0,0,0-11.276.095a4.365,4.365,0,0,0,3.8-1.976V3.686h1.349V-9.994ZM-11.162-1.1A3.659,3.659,0,0,1-14.886-5a3.67,3.67,0,0,1,3.724-3.895A3.666,3.666,0,0,1-7.457-5,3.655,3.655,0,0,1-11.162-1.1ZM5.292-9.994V-4.75c0,2.28-1.311,3.629-3.4,3.629-1.9,0-3-1.083-3-3.211V-9.994H-2.46v5.8C-2.46-1.33-.788.095,1.758.095A3.975,3.975,0,0,0,5.349-1.824V0H6.641V-9.994Zm5.814-2.185a.97.97,0,0,0,.988-.988.958.958,0,0,0-.988-.931.974.974,0,0,0-.988.95A.977.977,0,0,0,11.106-12.179ZM10.422,0h1.349V-9.994H10.422Zm10.26-10.07a4.353,4.353,0,0,0-3.857,2.052V-9.994H15.533V3.686h1.349V-1.881a4.365,4.365,0,0,0,3.8,1.976A4.84,4.84,0,0,0,25.66-5,4.835,4.835,0,0,0,20.682-10.07ZM20.587-1.1A3.659,3.659,0,0,1,16.863-5a3.67,3.67,0,0,1,3.724-3.895A3.681,3.681,0,0,1,24.311-5,3.67,3.67,0,0,1,20.587-1.1ZM33.564-10.07a4.353,4.353,0,0,0-3.857,2.052V-9.994H28.415V3.686h1.349V-1.881a4.365,4.365,0,0,0,3.8,1.976A4.84,4.84,0,0,0,38.542-5,4.835,4.835,0,0,0,33.564-10.07ZM33.469-1.1A3.659,3.659,0,0,1,29.745-5a3.67,3.67,0,0,1,3.724-3.895A3.681,3.681,0,0,1,37.193-5,3.67,3.67,0,0,1,33.469-1.1ZM50.018-5a4.762,4.762,0,0,0-4.845-5.073A4.813,4.813,0,0,0,40.29-5,4.949,4.949,0,0,0,45.534.095a4.92,4.92,0,0,0,3.857-1.634l-.76-.874A3.939,3.939,0,0,1,45.572-1.1a3.7,3.7,0,0,1-3.933-3.477H50C50-4.731,50.018-4.883,50.018-5ZM45.173-8.911a3.476,3.476,0,0,1,3.553,3.325H41.639A3.471,3.471,0,0,1,45.173-8.911ZM60.544-14.1v6a4.365,4.365,0,0,0-3.8-1.976A4.835,4.835,0,0,0,51.766-5,4.85,4.85,0,0,0,56.744.095,4.329,4.329,0,0,0,60.6-1.976V0h1.292V-14.1Zm-3.686,13A3.659,3.659,0,0,1,53.134-5a3.659,3.659,0,0,1,3.724-3.895A3.655,3.655,0,0,1,60.563-5,3.655,3.655,0,0,1,56.858-1.1ZM-48.184,13.006-51.357,21.5l-3.192-8.493h-1.159L-58.919,21.5l-3.135-8.493h-1.292L-59.584,23h1.273l3.154-8.189L-52,23h1.273l3.781-9.994Zm7.068,10.089A4.916,4.916,0,0,0-36.043,18a4.9,4.9,0,0,0-5.073-5.073A4.916,4.916,0,0,0-46.208,18,4.931,4.931,0,0,0-41.116,23.095Zm0-1.2A3.659,3.659,0,0,1-44.84,18a3.659,3.659,0,0,1,3.724-3.9A3.645,3.645,0,0,1-37.411,18,3.645,3.645,0,0,1-41.116,21.9ZM-32,14.963V13.006h-1.292V23h1.349V17.908c0-2.356,1.273-3.686,3.363-3.686.095,0,.209.019.323.019V12.93A3.769,3.769,0,0,0-32,14.963ZM-18.088,23h1.653l-4.674-5.909,4.275-4.085h-1.672l-5.966,5.453V8.9h-1.349V23h1.349V20.15l2.356-2.166Zm6.061.095c2.6,0,4.123-1.121,4.123-2.85,0-3.838-6.479-1.805-6.479-4.5,0-.95.8-1.653,2.6-1.653a5.123,5.123,0,0,1,2.945.855l.589-1.083a6.772,6.772,0,0,0-3.534-.931c-2.546,0-3.952,1.216-3.952,2.85,0,3.952,6.479,1.9,6.479,4.5,0,.988-.779,1.634-2.679,1.634A6.037,6.037,0,0,1-15.485,20.8l-.608,1.064A6.677,6.677,0,0,0-12.027,23.095Zm11.4-1.672a2.232,2.232,0,0,1-1.482.513,1.6,1.6,0,0,1-1.729-1.824V14.146H-.8v-1.14h-3.04V10.821H-5.187v2.185H-6.973v1.14h1.786v6.042a2.647,2.647,0,0,0,2.926,2.907,3.212,3.212,0,0,0,2.109-.7ZM5.8,12.93a6.346,6.346,0,0,0-4.066,1.349l.608,1.007a5.091,5.091,0,0,1,3.325-1.178c1.862,0,2.831.931,2.831,2.641v.608H5.32c-2.869,0-3.857,1.292-3.857,2.831,0,1.729,1.387,2.907,3.648,2.907A3.752,3.752,0,0,0,8.55,21.442V23H9.842V16.806C9.842,14.222,8.379,12.93,5.8,12.93Zm-.475,9.1c-1.6,0-2.527-.722-2.527-1.881,0-1.026.627-1.786,2.565-1.786H8.493V20A3.2,3.2,0,0,1,5.32,22.031ZM18.3,21.423a2.232,2.232,0,0,1-1.482.513,1.6,1.6,0,0,1-1.729-1.824V14.146h3.04v-1.14h-3.04V10.821H13.737v2.185H11.951v1.14h1.786v6.042a2.647,2.647,0,0,0,2.926,2.907,3.212,3.212,0,0,0,2.109-.7Zm3.61-10.6a.97.97,0,0,0,.988-.988.958.958,0,0,0-.988-.931.96.96,0,1,0,0,1.919ZM21.223,23h1.349V13.006H21.223Zm9.2.095A4.916,4.916,0,0,0,35.492,18a4.9,4.9,0,0,0-5.073-5.073A4.916,4.916,0,0,0,25.327,18,4.931,4.931,0,0,0,30.419,23.095Zm0-1.2A3.659,3.659,0,0,1,26.695,18a3.719,3.719,0,1,1,7.429,0A3.645,3.645,0,0,1,30.419,21.9Zm12.92-8.968a4.2,4.2,0,0,0-3.8,1.919V13.006H38.247V23H39.6V17.756a3.277,3.277,0,0,1,3.5-3.61c1.9,0,3,1.083,3,3.192V23h1.349V17.2C47.443,14.336,45.771,12.93,43.339,12.93Zm10.45,10.165c2.6,0,4.123-1.121,4.123-2.85,0-3.838-6.479-1.805-6.479-4.5,0-.95.8-1.653,2.6-1.653a5.123,5.123,0,0,1,2.945.855l.589-1.083a6.772,6.772,0,0,0-3.534-.931c-2.546,0-3.952,1.216-3.952,2.85,0,3.952,6.479,1.9,6.479,4.5,0,.988-.779,1.634-2.679,1.634A6.037,6.037,0,0,1,50.331,20.8l-.608,1.064A6.677,6.677,0,0,0,53.789,23.095ZM-72.665,49.686h2.831a17.358,17.358,0,0,1-2.3-8.892,17.358,17.358,0,0,1,2.3-8.892h-2.831a16.07,16.07,0,0,0-2.375,8.892A16.16,16.16,0,0,0-72.665,49.686Zm7.98-6.194,3.059-2.888c1.862-1.729,2.223-2.907,2.223-4.2,0-2.413-1.976-3.933-4.94-3.933a6.177,6.177,0,0,0-5.282,2.47l2.242,1.444a3.252,3.252,0,0,1,2.755-1.33c1.406,0,2.128.608,2.128,1.653,0,.646-.209,1.33-1.387,2.451l-5.13,4.845V46h10.051V43.492Zm11.21,0,3.059-2.888c1.862-1.729,2.223-2.907,2.223-4.2,0-2.413-1.976-3.933-4.94-3.933a6.177,6.177,0,0,0-5.282,2.47l2.242,1.444a3.252,3.252,0,0,1,2.755-1.33c1.406,0,2.128.608,2.128,1.653,0,.646-.209,1.33-1.387,2.451l-5.13,4.845V46h10.051V43.492Zm12.654,2.736c3.287,0,5.7-2.489,5.7-6.878s-2.413-6.878-5.7-6.878c-3.268,0-5.7,2.489-5.7,6.878S-44.089,46.228-40.821,46.228Zm0-2.6c-1.52,0-2.584-1.254-2.584-4.275s1.064-4.275,2.584-4.275c1.539,0,2.6,1.254,2.6,4.275S-39.282,43.625-40.821,43.625ZM-20.168,31.9v4.959a3.927,3.927,0,0,0-3.059-1.235,4.969,4.969,0,0,0-5.111,5.263,4.969,4.969,0,0,0,5.111,5.263,3.932,3.932,0,0,0,3.192-1.33V46H-17.2V31.9ZM-22.714,43.72a2.594,2.594,0,0,1-2.622-2.831,2.594,2.594,0,0,1,2.622-2.831,2.59,2.59,0,0,1,2.6,2.831A2.59,2.59,0,0,1-22.714,43.72Zm18.259-2.793a5.06,5.06,0,0,0-5.32-5.3,5.2,5.2,0,0,0-5.453,5.263c0,3.04,2.3,5.263,5.833,5.263A5.354,5.354,0,0,0-5.177,44.5l-1.577-1.71a3.465,3.465,0,0,1-2.565.988,2.726,2.726,0,0,1-2.926-2.052h7.733C-4.493,41.478-4.455,41.155-4.455,40.927Zm-5.3-3.059A2.429,2.429,0,0,1-7.248,40h-5.035A2.42,2.42,0,0,1-9.756,37.868ZM4.969,31.9v4.959A3.927,3.927,0,0,0,1.91,35.626,4.969,4.969,0,0,0-3.2,40.889,4.969,4.969,0,0,0,1.91,46.152,3.932,3.932,0,0,0,5.1,44.822V46H7.933V31.9ZM2.423,43.72A2.594,2.594,0,0,1-.2,40.889a2.594,2.594,0,0,1,2.622-2.831,2.59,2.59,0,0,1,2.6,2.831A2.59,2.59,0,0,1,2.423,43.72Zm9.728-9.367a1.7,1.7,0,0,0,1.843-1.71,1.664,1.664,0,0,0-1.843-1.6,1.663,1.663,0,1,0,0,3.306ZM10.668,46h2.964V35.778H10.668Zm10.659.152a4.742,4.742,0,0,0,4.579-2.584l-2.3-1.254a2.515,2.515,0,0,1-2.3,1.406,2.616,2.616,0,0,1-2.679-2.831,2.616,2.616,0,0,1,2.679-2.831,2.549,2.549,0,0,1,2.3,1.406l2.3-1.235a4.7,4.7,0,0,0-4.579-2.6c-3.325,0-5.7,2.185-5.7,5.263S18,46.152,21.327,46.152ZM31.74,35.626a7.858,7.858,0,0,0-4.408,1.235L28.4,38.932a4.915,4.915,0,0,1,2.945-.95c1.6,0,2.356.741,2.356,2.014H31.341c-3.116,0-4.389,1.254-4.389,3.059,0,1.767,1.425,3.1,3.819,3.1a3.355,3.355,0,0,0,3.116-1.425V46h2.774V40.167C36.661,37.07,34.856,35.626,31.74,35.626Zm-.228,8.531c-1.045,0-1.672-.494-1.672-1.235,0-.684.437-1.2,1.824-1.2H33.7V42.77A2.184,2.184,0,0,1,31.512,44.157Zm13.623-.741a2,2,0,0,1-1.2.38,1.192,1.192,0,0,1-1.273-1.349V38.286h2.546v-2.28H42.665V33.517H39.7v2.489H38.124v2.28H39.7v4.2c0,2.432,1.406,3.667,3.819,3.667a4.236,4.236,0,0,0,2.413-.646Zm12.16-2.489a5.06,5.06,0,0,0-5.32-5.3,5.2,5.2,0,0,0-5.453,5.263c0,3.04,2.3,5.263,5.833,5.263A5.354,5.354,0,0,0,56.573,44.5L55,42.789a3.465,3.465,0,0,1-2.565.988A2.726,2.726,0,0,1,49.5,41.725h7.733C57.257,41.478,57.295,41.155,57.295,40.927Zm-5.3-3.059A2.429,2.429,0,0,1,54.5,40H49.467A2.42,2.42,0,0,1,51.994,37.868ZM66.719,31.9v4.959a3.927,3.927,0,0,0-3.059-1.235,4.969,4.969,0,0,0-5.111,5.263,4.969,4.969,0,0,0,5.111,5.263,3.932,3.932,0,0,0,3.192-1.33V46h2.831V31.9ZM64.173,43.72a2.594,2.594,0,0,1-2.622-2.831,2.621,2.621,0,1,1,5.225,0A2.59,2.59,0,0,1,64.173,43.72Zm-127.29,22.7a2,2,0,0,1-1.2.38,1.192,1.192,0,0,1-1.273-1.349V61.286h2.546v-2.28h-2.546V56.517h-2.964v2.489h-1.577v2.28h1.577v4.2c0,2.432,1.406,3.667,3.819,3.667a4.236,4.236,0,0,0,2.413-.646Zm7.011,2.736c3.249,0,5.6-2.185,5.6-5.263s-2.356-5.263-5.6-5.263-5.624,2.185-5.624,5.263S-59.356,69.152-56.107,69.152Zm0-2.432a2.594,2.594,0,0,1-2.622-2.831,2.594,2.594,0,0,1,2.622-2.831,2.58,2.58,0,0,1,2.6,2.831A2.58,2.58,0,0,1-56.107,66.72Zm17.9,2.432a4.742,4.742,0,0,0,4.579-2.584l-2.3-1.254a2.515,2.515,0,0,1-2.3,1.406,2.616,2.616,0,0,1-2.679-2.831,2.616,2.616,0,0,1,2.679-2.831,2.549,2.549,0,0,1,2.3,1.406l2.3-1.235a4.7,4.7,0,0,0-4.579-2.6c-3.325,0-5.7,2.185-5.7,5.263S-41.534,69.152-38.209,69.152Zm11.02,0c3.249,0,5.605-2.185,5.605-5.263s-2.356-5.263-5.605-5.263-5.624,2.185-5.624,5.263S-30.438,69.152-27.189,69.152Zm0-2.432a2.594,2.594,0,0,1-2.622-2.831,2.594,2.594,0,0,1,2.622-2.831,2.58,2.58,0,0,1,2.6,2.831A2.58,2.58,0,0,1-27.189,66.72ZM-19.608,69h2.964V54.9h-2.964Zm5.719,0h2.964V54.9h-2.964ZM1.843,63.927a5.06,5.06,0,0,0-5.32-5.3A5.2,5.2,0,0,0-8.93,63.889c0,3.04,2.3,5.263,5.833,5.263A5.354,5.354,0,0,0,1.121,67.5l-1.577-1.71a3.465,3.465,0,0,1-2.565.988,2.726,2.726,0,0,1-2.926-2.052H1.786C1.805,64.478,1.843,64.155,1.843,63.927Zm-5.3-3.059A2.429,2.429,0,0,1-.95,63H-5.985A2.42,2.42,0,0,1-3.458,60.868ZM8.759,69.152a4.742,4.742,0,0,0,4.579-2.584l-2.3-1.254a2.515,2.515,0,0,1-2.3,1.406,2.835,2.835,0,0,1,0-5.662,2.549,2.549,0,0,1,2.3,1.406l2.3-1.235a4.7,4.7,0,0,0-4.579-2.6c-3.325,0-5.7,2.185-5.7,5.263S5.434,69.152,8.759,69.152ZM21,66.416a2,2,0,0,1-1.2.38,1.192,1.192,0,0,1-1.273-1.349V61.286h2.546v-2.28H18.525V56.517H15.561v2.489H13.984v2.28h1.577v4.2c0,2.432,1.406,3.667,3.819,3.667a4.236,4.236,0,0,0,2.413-.646Zm3.952-9.063a1.7,1.7,0,0,0,1.843-1.71,1.664,1.664,0,0,0-1.843-1.6,1.663,1.663,0,1,0,0,3.306ZM23.465,69h2.964V58.778H23.465Zm10.583.152c3.249,0,5.6-2.185,5.6-5.263s-2.356-5.263-5.6-5.263-5.624,2.185-5.624,5.263S30.8,69.152,34.048,69.152Zm0-2.432a2.841,2.841,0,1,1,2.6-2.831A2.594,2.594,0,0,1,34.048,66.72Zm13.794-8.094a4.475,4.475,0,0,0-3.382,1.349v-1.2H41.629V69h2.964V63.946c0-1.881,1.026-2.755,2.451-2.755,1.311,0,2.071.76,2.071,2.413V69h2.964V63.148C52.079,60.032,50.255,58.626,47.842,58.626ZM58.2,69.152c3.059,0,4.826-1.349,4.826-3.249,0-4.028-6.175-2.337-6.175-4.085,0-.532.57-.95,1.9-.95a5.87,5.87,0,0,1,2.945.76l.988-2.109a8.4,8.4,0,0,0-3.933-.893c-2.983,0-4.731,1.368-4.731,3.306,0,4.085,6.175,2.375,6.175,4.047,0,.57-.513.931-1.881.931a6.994,6.994,0,0,1-3.553-.988L53.77,68.05A8.775,8.775,0,0,0,58.2,69.152Zm8.3,3.534a15.853,15.853,0,0,0,2.394-8.892A15.766,15.766,0,0,0,66.5,54.9H63.669a18.214,18.214,0,0,1,0,17.784Z" transform="translate(1321.364 1576.484)" fill="#fff"/>
        <path id="support_agent_FILL0_wght400_GRAD0_opsz48" d="M32.008,62.015V57.347H58.459V33.7a20.26,20.26,0,0,0-1.945-8.675A24.947,24.947,0,0,0,51.3,17.67a25.961,25.961,0,0,0-7.469-5.1,20.87,20.87,0,0,0-17.427,0,25.961,25.961,0,0,0-7.469,5.1,24.947,24.947,0,0,0-5.213,7.352A20.26,20.26,0,0,0,11.78,33.7V52.679H10.224a5.993,5.993,0,0,1-4.4-1.828A5.993,5.993,0,0,1,4,46.455V40.232a5.8,5.8,0,0,1,.856-3.151,6.832,6.832,0,0,1,2.256-2.217l.233-4.123a28.226,28.226,0,0,1,3.229-10.269,27.335,27.335,0,0,1,6.3-7.78,28.318,28.318,0,0,1,8.48-4.94,28.322,28.322,0,0,1,19.605,0A27.394,27.394,0,0,1,53.4,12.73a28.415,28.415,0,0,1,6.263,7.78,27.787,27.787,0,0,1,3.229,10.153l.233,4.046a5.661,5.661,0,0,1,3.112,5.057v7.158a5.461,5.461,0,0,1-.856,3.034,5.655,5.655,0,0,1-2.256,2.023v5.368a4.649,4.649,0,0,1-4.668,4.668ZM25.784,39.454a2.239,2.239,0,0,1-1.634-.7,2.328,2.328,0,0,1-.7-1.712,2.115,2.115,0,0,1,.7-1.595,2.4,2.4,0,0,1,1.712-.661,2.174,2.174,0,0,1,1.595.661,2.267,2.267,0,0,1,.661,1.673,2.3,2.3,0,0,1-.661,1.634A2.2,2.2,0,0,1,25.784,39.454Zm18.672,0a2.239,2.239,0,0,1-1.634-.7,2.328,2.328,0,0,1-.7-1.712,2.115,2.115,0,0,1,.7-1.595,2.4,2.4,0,0,1,1.712-.661,2.174,2.174,0,0,1,1.595.661,2.267,2.267,0,0,1,.661,1.673,2.3,2.3,0,0,1-.661,1.634A2.2,2.2,0,0,1,44.455,39.454Zm-27.93-4.046a17.844,17.844,0,0,1,1.284-8.324,19.257,19.257,0,0,1,4.279-6.341,19.337,19.337,0,0,1,13.187-5.407,16.847,16.847,0,0,1,11.9,4.473,18.937,18.937,0,0,1,5.913,11.164,22.5,22.5,0,0,1-12.876-3.929,25.891,25.891,0,0,1-8.6-10,24.846,24.846,0,0,1-5.251,11.164,24.21,24.21,0,0,1-9.842,7.2Z" transform="translate(1290 1477.217)" fill="#fff"/>
      </g>
    </g>
  </g>
</svg>
