<svg xmlns="http://www.w3.org/2000/svg" width="222" height="207" viewBox="0 0 222 207">
  <g id="Grupo_21338" data-name="Grupo 21338" transform="translate(-1468 -1405)">
    <g id="Grupo_5938" data-name="Grupo 5938" transform="translate(1468 1405)" opacity="0.204">
      <g id="Rect치ngulo_2984" data-name="Rect치ngulo 2984" fill="none" stroke="#fff" stroke-width="1">
        <rect width="222" height="207" rx="5" stroke="none"/>
        <rect x="0.5" y="0.5" width="221" height="206" rx="4.5" fill="none"/>
      </g>
      <rect id="Rect치ngulo_3059" data-name="Rect치ngulo 3059" width="222" height="207" rx="5" fill="#fff" opacity="0.043"/>
    </g>
    <g id="Grupo_21336" data-name="Grupo 21336" transform="translate(1485 1448)">
      <path id="Trazado_41144" data-name="Trazado 41144" d="M-55.794-13.3l-5.719,9.861L-67.289-13.3h-1.159V0H-67.1V-10.583l5.225,8.892h.665l5.225-8.949V0h1.349V-13.3ZM-46.5.095A4.916,4.916,0,0,0-41.43-5,4.9,4.9,0,0,0-46.5-10.07,4.916,4.916,0,0,0-51.595-5,4.931,4.931,0,0,0-46.5.095Zm0-1.2A3.659,3.659,0,0,1-50.227-5,3.659,3.659,0,0,1-46.5-8.892,3.645,3.645,0,0,1-42.8-5,3.645,3.645,0,0,1-46.5-1.1Zm9.12-6.935V-9.994h-1.292V0h1.349V-5.092c0-2.356,1.273-3.686,3.363-3.686.1,0,.209.019.323.019V-10.07A3.769,3.769,0,0,0-37.383-8.037ZM-22.582-5a4.762,4.762,0,0,0-4.845-5.073A4.813,4.813,0,0,0-32.31-5,4.949,4.949,0,0,0-27.066.095a4.92,4.92,0,0,0,3.857-1.634l-.76-.874A3.939,3.939,0,0,1-27.028-1.1a3.7,3.7,0,0,1-3.933-3.477h8.36C-22.6-4.731-22.582-4.883-22.582-5Zm-4.845-3.914a3.476,3.476,0,0,1,3.553,3.325h-7.087A3.471,3.471,0,0,1-27.427-8.911Zm17.366,7.334a2.232,2.232,0,0,1-1.482.513,1.6,1.6,0,0,1-1.729-1.824V-8.854h3.04v-1.14h-3.04v-2.185h-1.349v2.185h-1.786v1.14h1.786v6.042A2.647,2.647,0,0,0-11.695.095a3.212,3.212,0,0,0,2.109-.7Zm8.018-8.493A4.224,4.224,0,0,0-5.786-8.246V-14.1H-7.135V0h1.349V-5.244a3.277,3.277,0,0,1,3.5-3.61c1.9,0,3,1.083,3,3.192V0H2.061V-5.8C2.061-8.664.389-10.07-2.043-10.07Zm11.267,0A6.346,6.346,0,0,0,5.158-8.721l.608,1.007A5.091,5.091,0,0,1,9.091-8.892c1.862,0,2.831.931,2.831,2.641v.608H8.749c-2.869,0-3.857,1.292-3.857,2.831C4.892-1.083,6.279.095,8.54.095a3.752,3.752,0,0,0,3.439-1.653V0h1.292V-6.194C13.271-8.778,11.808-10.07,9.224-10.07Zm-.475,9.1c-1.6,0-2.527-.722-2.527-1.881,0-1.026.627-1.786,2.565-1.786h3.135V-3A3.2,3.2,0,0,1,8.749-.969Zm13.281-9.1a4.2,4.2,0,0,0-3.8,1.919V-9.994H16.938V0h1.349V-5.244a3.277,3.277,0,0,1,3.5-3.61c1.9,0,3,1.083,3,3.192V0h1.349V-5.8C26.134-8.664,24.462-10.07,22.03-10.07ZM45.191-4.712h-2.66V-7.79H41.2v3.078H35.425l6.8-8.588h-1.52L33.658-4.484V-3.5h7.505V0h1.368V-3.5h2.66ZM51.746.114c3.078,0,5.32-2.527,5.32-6.764s-2.242-6.764-5.32-6.764-5.3,2.527-5.3,6.764S48.668.114,51.746.114Zm0-1.254c-2.318,0-3.914-1.957-3.914-5.51s1.6-5.51,3.914-5.51S55.66-10.2,55.66-6.65,54.064-1.14,51.746-1.14ZM64.325.114c3.078,0,5.32-2.527,5.32-6.764s-2.242-6.764-5.32-6.764-5.3,2.527-5.3,6.764S61.246.114,64.325.114Zm0-1.254c-2.318,0-3.914-1.957-3.914-5.51s1.6-5.51,3.914-5.51,3.914,1.957,3.914,5.51S66.643-1.14,64.325-1.14ZM-54.463,11.771v1.235h-1.786v1.14h1.786V23h1.349V14.146h3.04v-1.14h-3.078V11.828c0-1.235.608-1.881,1.767-1.881a2.285,2.285,0,0,1,1.482.494l.456-1.007a3.167,3.167,0,0,0-1.995-.627A2.752,2.752,0,0,0-54.463,11.771ZM-46.046,8.9a.974.974,0,0,0-.988.95.977.977,0,0,0,.988.969.97.97,0,0,0,.988-.988A.958.958,0,0,0-46.046,8.9ZM-46.73,23h1.349V13.006H-46.73ZM-32.9,18a4.762,4.762,0,0,0-4.845-5.073A4.813,4.813,0,0,0-42.626,18a4.949,4.949,0,0,0,5.244,5.092,4.92,4.92,0,0,0,3.857-1.634l-.76-.874A3.939,3.939,0,0,1-37.344,21.9a3.7,3.7,0,0,1-3.933-3.477h8.36C-32.917,18.269-32.9,18.117-32.9,18Zm-4.845-3.914a3.476,3.476,0,0,1,3.553,3.325h-7.087A3.471,3.471,0,0,1-37.743,14.089Zm7.6,8.911h1.349V8.9h-1.349ZM-17.261,8.9v6a4.365,4.365,0,0,0-3.8-1.976A4.835,4.835,0,0,0-26.039,18a4.85,4.85,0,0,0,4.978,5.092A4.329,4.329,0,0,0-17.2,21.024V23h1.292V8.9Zm-3.686,13A3.659,3.659,0,0,1-24.671,18a3.659,3.659,0,0,1,3.724-3.9A3.655,3.655,0,0,1-17.242,18,3.655,3.655,0,0,1-20.947,21.9ZM-3.676,12.93a6.346,6.346,0,0,0-4.066,1.349l.608,1.007a5.091,5.091,0,0,1,3.325-1.178c1.862,0,2.831.931,2.831,2.641v.608H-4.151c-2.869,0-3.857,1.292-3.857,2.831,0,1.729,1.387,2.907,3.648,2.907A3.752,3.752,0,0,0-.921,21.442V23H.371V16.806C.371,14.222-1.092,12.93-3.676,12.93Zm-.475,9.1c-1.6,0-2.527-.722-2.527-1.881,0-1.026.627-1.786,2.565-1.786H-.978V20A3.2,3.2,0,0,1-4.151,22.031Zm16.188-9.025v1.919A4.51,4.51,0,0,0,8.084,12.93a4.848,4.848,0,1,0,0,9.69,4.5,4.5,0,0,0,3.9-1.938v1.273c0,2.47-1.159,3.629-3.686,3.629A5.948,5.948,0,0,1,4.36,24.216l-.684,1.026a6.97,6.97,0,0,0,4.655,1.539c3.306,0,5-1.558,5-5V13.006ZM8.218,21.423a3.572,3.572,0,0,1-3.781-3.667,3.558,3.558,0,0,1,3.781-3.648,3.66,3.66,0,1,1,0,7.315ZM25.831,18a4.762,4.762,0,0,0-4.845-5.073A4.813,4.813,0,0,0,16.1,18a4.949,4.949,0,0,0,5.244,5.092A4.92,4.92,0,0,0,25.2,21.461l-.76-.874A3.939,3.939,0,0,1,21.385,21.9a3.7,3.7,0,0,1-3.933-3.477h8.36C25.812,18.269,25.831,18.117,25.831,18Zm-4.845-3.914a3.476,3.476,0,0,1,3.553,3.325H17.452A3.471,3.471,0,0,1,20.986,14.089ZM33.678,12.93a4.2,4.2,0,0,0-3.8,1.919V13.006H28.586V23h1.349V17.756a3.277,3.277,0,0,1,3.5-3.61c1.9,0,3,1.083,3,3.192V23h1.349V17.2C37.782,14.336,36.11,12.93,33.678,12.93Zm12.559,8.493a2.232,2.232,0,0,1-1.482.513,1.6,1.6,0,0,1-1.729-1.824V14.146h3.04v-1.14h-3.04V10.821H41.677v2.185H39.891v1.14h1.786v6.042A2.647,2.647,0,0,0,44.6,23.095a3.212,3.212,0,0,0,2.109-.7Zm5.6,1.672c2.6,0,4.123-1.121,4.123-2.85,0-3.838-6.479-1.805-6.479-4.5,0-.95.8-1.653,2.6-1.653a5.123,5.123,0,0,1,2.945.855l.589-1.083a6.772,6.772,0,0,0-3.534-.931c-2.546,0-3.952,1.216-3.952,2.85,0,3.952,6.479,1.9,6.479,4.5,0,.988-.779,1.634-2.679,1.634A6.037,6.037,0,0,1,48.383,20.8l-.608,1.064A6.677,6.677,0,0,0,51.841,23.095Z" transform="translate(94 92.034)" fill="#fff"/>
      <path id="groups_FILL0_wght400_GRAD0_opsz48" d="M0,63.783V58.065q0-4.207,4.531-6.8T16.182,48.68q1.4,0,2.589.054a17.762,17.762,0,0,1,2.373.27,17.566,17.566,0,0,0-1.726,7.767v7.012Zm25.891,0V56.771q0-7.012,7.174-11.328t18.717-4.315q11.651,0,18.771,4.315t7.12,11.328v7.012Zm58.256,0V56.771a20.617,20.617,0,0,0-.378-4.046A16.17,16.17,0,0,0,82.529,49a17.762,17.762,0,0,1,2.373-.27q1.187-.054,2.481-.054,7.336,0,11.759,2.589t4.423,6.8v5.718ZM51.783,47.6q-8.63,0-14.025,2.589t-5.394,6.581v.539H71.2v-.647q0-3.884-5.34-6.473T51.783,47.6Zm-35.6-2.158a7.276,7.276,0,0,1-5.34-2.212,7.553,7.553,0,0,1,0-10.68,7.276,7.276,0,0,1,5.34-2.212,7.551,7.551,0,0,1,7.552,7.552,7.551,7.551,0,0,1-7.552,7.552Zm71.2,0a7.551,7.551,0,0,1-7.552-7.552,7.552,7.552,0,1,1,12.892,5.34A7.276,7.276,0,0,1,87.384,45.443Zm-35.6-7.552A12.892,12.892,0,0,1,38.837,24.946a12.434,12.434,0,0,1,3.776-9.224A12.577,12.577,0,0,1,51.783,12,12.715,12.715,0,0,1,64.729,24.946a12.577,12.577,0,0,1-3.722,9.17A12.434,12.434,0,0,1,51.783,37.891Zm0-19.419A6.336,6.336,0,0,0,47.2,20.307a6.193,6.193,0,0,0-1.888,4.639,6.522,6.522,0,0,0,11.112,4.585,6.336,6.336,0,0,0,1.834-4.585,6.273,6.273,0,0,0-6.473-6.473ZM51.783,57.31ZM51.783,24.946Z" transform="translate(45.973 -12)" fill="#fff"/>
    </g>
  </g>
</svg>
