<svg xmlns="http://www.w3.org/2000/svg" width="222" height="207" viewBox="0 0 222 207">
  <g id="personal" transform="translate(-1059 -1643)">
    <g id="Grupo_5945" data-name="Grupo 5945" transform="translate(16 -25.501)">
      <g id="Grupo_5940" data-name="Grupo 5940" transform="translate(105 218.501)" opacity="0.198">
        <g id="Rect치ngulo_2984" data-name="Rect치ngulo 2984" transform="translate(938 1450)" fill="none" stroke="#fff" stroke-width="1">
          <rect width="222" height="207" rx="5" stroke="none"/>
          <rect x="0.5" y="0.5" width="221" height="206" rx="4.5" fill="none"/>
        </g>
        <rect id="Rect치ngulo_3059" data-name="Rect치ngulo 3059" width="222" height="207" rx="5" transform="translate(938 1450)" fill="#fff" opacity="0.045"/>
      </g>
      <g id="Grupo_5941" data-name="Grupo 5941" transform="translate(1002.459 1697.501)">
        <path id="Trazado_41145" data-name="Trazado 41145" d="M-91.11-14l-5.4,12.16L-101.87-14h-1.6l6.2,14h1.46l6.2-14Zm11.6,8.74a5.013,5.013,0,0,0-5.1-5.34,5.067,5.067,0,0,0-5.14,5.34A5.21,5.21,0,0,0-84.23.1a5.178,5.178,0,0,0,4.06-1.72l-.8-.92a4.147,4.147,0,0,1-3.22,1.38,3.894,3.894,0,0,1-4.14-3.66h8.8C-79.53-4.98-79.51-5.14-79.51-5.26Zm-5.1-4.12a3.659,3.659,0,0,1,3.74,3.5h-7.46A3.654,3.654,0,0,1-84.61-9.38Zm13.36-1.22a4.446,4.446,0,0,0-3.94,1.92v-6.16h-1.42V0h1.42V-5.52a3.449,3.449,0,0,1,3.68-3.8c2,0,3.16,1.14,3.16,3.36V0h1.42V-6.1C-66.93-9.12-68.69-10.6-71.25-10.6Zm8.9-2.22a1.021,1.021,0,0,0,1.04-1.04,1.009,1.009,0,0,0-1.04-.98,1.025,1.025,0,0,0-1.04,1A1.029,1.029,0,0,0-62.35-12.82ZM-63.07,0h1.42V-10.52h-1.42Zm9.74.1a4.638,4.638,0,0,0,4.12-2.08l-1.06-.72a3.558,3.558,0,0,1-3.06,1.54,3.854,3.854,0,0,1-3.98-4.1,3.865,3.865,0,0,1,3.98-4.1A3.576,3.576,0,0,1-50.27-7.8l1.06-.72a4.6,4.6,0,0,0-4.12-2.08,5.178,5.178,0,0,0-5.42,5.34A5.194,5.194,0,0,0-53.33.1Zm6.74-.1h1.42V-14.84h-1.42Zm14.56-5.26a5.013,5.013,0,0,0-5.1-5.34,5.067,5.067,0,0,0-5.14,5.34A5.21,5.21,0,0,0-36.75.1a5.178,5.178,0,0,0,4.06-1.72l-.8-.92a4.147,4.147,0,0,1-3.22,1.38,3.894,3.894,0,0,1-4.14-3.66h8.8C-32.05-4.98-32.03-5.14-32.03-5.26Zm-5.1-4.12a3.659,3.659,0,0,1,3.74,3.5h-7.46A3.654,3.654,0,0,1-37.13-9.38ZM-26.31.1c2.74,0,4.34-1.18,4.34-3,0-4.04-6.82-1.9-6.82-4.74,0-1,.84-1.74,2.74-1.74a5.392,5.392,0,0,1,3.1.9l.62-1.14a7.129,7.129,0,0,0-3.72-.98c-2.68,0-4.16,1.28-4.16,3,0,4.16,6.82,2,6.82,4.74,0,1.04-.82,1.72-2.82,1.72a6.354,6.354,0,0,1-3.74-1.18l-.64,1.12A7.028,7.028,0,0,0-26.31.1Zm15.88-10.7a6.68,6.68,0,0,0-4.28,1.42l.64,1.06a5.359,5.359,0,0,1,3.5-1.24c1.96,0,2.98.98,2.98,2.78v.64h-3.34c-3.02,0-4.06,1.36-4.06,2.98,0,1.82,1.46,3.06,3.84,3.06A3.95,3.95,0,0,0-7.53-1.64V0h1.36V-6.52C-6.17-9.24-7.71-10.6-10.43-10.6Zm-.5,9.58c-1.68,0-2.66-.76-2.66-1.98,0-1.08.66-1.88,2.7-1.88h3.3v1.72A3.366,3.366,0,0,1-10.93-1.02ZM3.05-10.6a4.421,4.421,0,0,0-4,2.02v-1.94H-2.31V0H-.89V-5.52a3.449,3.449,0,0,1,3.68-3.8c2,0,3.16,1.14,3.16,3.36V0H7.37V-6.1C7.37-9.12,5.61-10.6,3.05-10.6Zm16.4-4.24v6.32a4.6,4.6,0,0,0-4-2.08,5.089,5.089,0,0,0-5.24,5.34A5.106,5.106,0,0,0,15.45.1a4.557,4.557,0,0,0,4.06-2.18V0h1.36V-14.84ZM15.57-1.16a3.852,3.852,0,0,1-3.92-4.1,3.852,3.852,0,0,1,3.92-4.1,3.847,3.847,0,0,1,3.9,4.1A3.847,3.847,0,0,1,15.57-1.16ZM43.19-10.6a4.581,4.581,0,0,0-4.16,2.22,3.779,3.779,0,0,0-3.74-2.22,4.254,4.254,0,0,0-3.86,2v-1.92H30.07V0h1.42V-5.52c0-2.4,1.38-3.8,3.52-3.8,1.92,0,3.04,1.14,3.04,3.36V0h1.42V-5.52c0-2.4,1.36-3.8,3.52-3.8,1.9,0,3.02,1.14,3.02,3.36V0h1.42V-6.1C47.43-9.12,45.75-10.6,43.19-10.6ZM55.63.1a5.175,5.175,0,0,0,5.34-5.36,5.158,5.158,0,0,0-5.34-5.34,5.174,5.174,0,0,0-5.36,5.34A5.191,5.191,0,0,0,55.63.1Zm0-1.26a3.852,3.852,0,0,1-3.92-4.1,3.852,3.852,0,0,1,3.92-4.1,3.836,3.836,0,0,1,3.9,4.1A3.836,3.836,0,0,1,55.63-1.16ZM69.29-10.6a4.6,4.6,0,0,0-4,2.08v-6.32H63.87V0h1.36V-2.08A4.557,4.557,0,0,0,69.29.1a5.106,5.106,0,0,0,5.24-5.36A5.089,5.089,0,0,0,69.29-10.6Zm-.1,9.44a3.852,3.852,0,0,1-3.92-4.1,3.852,3.852,0,0,1,3.92-4.1,3.863,3.863,0,0,1,3.92,4.1A3.863,3.863,0,0,1,69.19-1.16Zm8.96-11.66a1.021,1.021,0,0,0,1.04-1.04,1.009,1.009,0,0,0-1.04-.98,1.025,1.025,0,0,0-1.04,1A1.029,1.029,0,0,0,78.15-12.82ZM77.43,0h1.42V-10.52H77.43Zm5.38,0h1.42V-14.84H82.81ZM97.37-5.26a5.013,5.013,0,0,0-5.1-5.34,5.067,5.067,0,0,0-5.14,5.34A5.21,5.21,0,0,0,92.65.1a5.178,5.178,0,0,0,4.06-1.72l-.8-.92a4.147,4.147,0,0,1-3.22,1.38,3.894,3.894,0,0,1-4.14-3.66h8.8C97.35-4.98,97.37-5.14,97.37-5.26Zm-5.1-4.12a3.659,3.659,0,0,1,3.74,3.5H88.55A3.654,3.654,0,0,1,92.27-9.38ZM-92.22,12.18v1.3H-94.1v1.2h1.88V24h1.42V14.68h3.2v-1.2h-3.24V12.24c0-1.3.64-1.98,1.86-1.98a2.406,2.406,0,0,1,1.56.52l.48-1.06a3.334,3.334,0,0,0-2.1-.66A2.9,2.9,0,0,0-92.22,12.18Zm6.54-3.02V24h1.42V9.16Zm14.56,9.58a5.013,5.013,0,0,0-5.1-5.34,5.067,5.067,0,0,0-5.14,5.34,5.21,5.21,0,0,0,5.52,5.36,5.178,5.178,0,0,0,4.06-1.72l-.8-.92a4.147,4.147,0,0,1-3.22,1.38,3.894,3.894,0,0,1-4.14-3.66h8.8C-71.14,19.02-71.12,18.86-71.12,18.74Zm-5.1-4.12a3.659,3.659,0,0,1,3.74,3.5h-7.46A3.654,3.654,0,0,1-76.22,14.62Zm17.18,4.12a5.013,5.013,0,0,0-5.1-5.34,5.067,5.067,0,0,0-5.14,5.34,5.21,5.21,0,0,0,5.52,5.36,5.178,5.178,0,0,0,4.06-1.72l-.8-.92a4.147,4.147,0,0,1-3.22,1.38,3.894,3.894,0,0,1-4.14-3.66h8.8C-59.06,19.02-59.04,18.86-59.04,18.74Zm-5.1-4.12a3.659,3.659,0,0,1,3.74,3.5h-7.46A3.654,3.654,0,0,1-64.14,14.62Zm13.04,7.72a2.35,2.35,0,0,1-1.56.54,1.685,1.685,0,0,1-1.82-1.92V14.68h3.2v-1.2h-3.2v-2.3H-55.9v2.3h-1.88v1.2h1.88v6.36a2.787,2.787,0,0,0,3.08,3.06,3.382,3.382,0,0,0,2.22-.74Zm21.44-8.94a4.581,4.581,0,0,0-4.16,2.22,3.779,3.779,0,0,0-3.74-2.22,4.254,4.254,0,0,0-3.86,2V13.48h-1.36V24h1.42V18.48c0-2.4,1.38-3.8,3.52-3.8,1.92,0,3.04,1.14,3.04,3.36V24h1.42V18.48c0-2.4,1.36-3.8,3.52-3.8,1.9,0,3.02,1.14,3.02,3.36V24h1.42V17.9C-25.42,14.88-27.1,13.4-29.66,13.4Zm11.78,0a6.68,6.68,0,0,0-4.28,1.42l.64,1.06a5.359,5.359,0,0,1,3.5-1.24c1.96,0,2.98.98,2.98,2.78v.64h-3.34c-3.02,0-4.06,1.36-4.06,2.98,0,1.82,1.46,3.06,3.84,3.06a3.95,3.95,0,0,0,3.62-1.74V24h1.36V17.48C-13.62,14.76-15.16,13.4-17.88,13.4Zm-.5,9.58c-1.68,0-2.66-.76-2.66-1.98,0-1.08.66-1.88,2.7-1.88h3.3v1.72A3.366,3.366,0,0,1-18.38,22.98ZM-4.4,13.4a4.421,4.421,0,0,0-4,2.02V13.48H-9.76V24h1.42V18.48a3.449,3.449,0,0,1,3.68-3.8c2,0,3.16,1.14,3.16,3.36V24H-.08V17.9C-.08,14.88-1.84,13.4-4.4,13.4Zm11.86,0a6.68,6.68,0,0,0-4.28,1.42l.64,1.06a5.359,5.359,0,0,1,3.5-1.24c1.96,0,2.98.98,2.98,2.78v.64H6.96c-3.02,0-4.06,1.36-4.06,2.98,0,1.82,1.46,3.06,3.84,3.06a3.95,3.95,0,0,0,3.62-1.74V24h1.36V17.48C11.72,14.76,10.18,13.4,7.46,13.4Zm-.5,9.58c-1.68,0-2.66-.76-2.66-1.98,0-1.08.66-1.88,2.7-1.88h3.3v1.72A3.366,3.366,0,0,1,6.96,22.98ZM24,13.48V15.5a4.748,4.748,0,0,0-4.16-2.1,5.1,5.1,0,1,0,0,10.2,4.734,4.734,0,0,0,4.1-2.04V22.9c0,2.6-1.22,3.82-3.88,3.82a6.261,6.261,0,0,1-4.14-1.44l-.72,1.08a7.337,7.337,0,0,0,4.9,1.62c3.48,0,5.26-1.64,5.26-5.26V13.48Zm-4.02,8.86A3.76,3.76,0,0,1,16,18.48a3.745,3.745,0,0,1,3.98-3.84,3.853,3.853,0,1,1,0,7.7Zm18.54-3.6a5.013,5.013,0,0,0-5.1-5.34,5.067,5.067,0,0,0-5.14,5.34A5.21,5.21,0,0,0,33.8,24.1a5.178,5.178,0,0,0,4.06-1.72l-.8-.92a4.147,4.147,0,0,1-3.22,1.38,3.894,3.894,0,0,1-4.14-3.66h8.8C38.5,19.02,38.52,18.86,38.52,18.74Zm-5.1-4.12a3.659,3.659,0,0,1,3.74,3.5H29.7A3.654,3.654,0,0,1,33.42,14.62ZM54.54,13.4a4.581,4.581,0,0,0-4.16,2.22,3.779,3.779,0,0,0-3.74-2.22,4.254,4.254,0,0,0-3.86,2V13.48H41.42V24h1.42V18.48c0-2.4,1.38-3.8,3.52-3.8,1.92,0,3.04,1.14,3.04,3.36V24h1.42V18.48c0-2.4,1.36-3.8,3.52-3.8,1.9,0,3.02,1.14,3.02,3.36V24h1.42V17.9C58.78,14.88,57.1,13.4,54.54,13.4Zm17.32,5.34a5.013,5.013,0,0,0-5.1-5.34,5.067,5.067,0,0,0-5.14,5.34,5.562,5.562,0,0,0,9.58,3.64l-.8-.92a4.147,4.147,0,0,1-3.22,1.38,3.894,3.894,0,0,1-4.14-3.66h8.8C71.84,19.02,71.86,18.86,71.86,18.74Zm-5.1-4.12a3.659,3.659,0,0,1,3.74,3.5H63.04A3.654,3.654,0,0,1,66.76,14.62ZM80.12,13.4a4.421,4.421,0,0,0-4,2.02V13.48H74.76V24h1.42V18.48a3.449,3.449,0,0,1,3.68-3.8c2,0,3.16,1.14,3.16,3.36V24h1.42V17.9C84.44,14.88,82.68,13.4,80.12,13.4Zm13.22,8.94a2.35,2.35,0,0,1-1.56.54,1.685,1.685,0,0,1-1.82-1.92V14.68h3.2v-1.2h-3.2v-2.3H88.54v2.3H86.66v1.2h1.88v6.36a2.787,2.787,0,0,0,3.08,3.06,3.382,3.382,0,0,0,2.22-.74ZM-30.76,48.1c2.74,0,4.34-1.18,4.34-3,0-4.04-6.82-1.9-6.82-4.74,0-1,.84-1.74,2.74-1.74a5.392,5.392,0,0,1,3.1.9l.62-1.14a7.129,7.129,0,0,0-3.72-.98c-2.68,0-4.16,1.28-4.16,3,0,4.16,6.82,2,6.82,4.74,0,1.04-.82,1.72-2.82,1.72a6.354,6.354,0,0,1-3.74-1.18l-.64,1.12A7.028,7.028,0,0,0-30.76,48.1Zm14.2-10.62-3.96,8.94-3.96-8.94h-1.48l4.7,10.5L-21.72,49c-.6,1.32-1.24,1.76-2.18,1.76a2.627,2.627,0,0,1-1.92-.8l-.66,1.06a3.6,3.6,0,0,0,2.56.96c1.5,0,2.62-.66,3.5-2.72l5.26-11.78Zm6.1,10.62c2.74,0,4.34-1.18,4.34-3,0-4.04-6.82-1.9-6.82-4.74,0-1,.84-1.74,2.74-1.74a5.392,5.392,0,0,1,3.1.9l.62-1.14a7.129,7.129,0,0,0-3.72-.98c-2.68,0-4.16,1.28-4.16,3,0,4.16,6.82,2,6.82,4.74,0,1.04-.82,1.72-2.82,1.72a6.354,6.354,0,0,1-3.74-1.18l-.64,1.12A7.028,7.028,0,0,0-10.46,48.1Zm12-1.76a2.35,2.35,0,0,1-1.56.54,1.685,1.685,0,0,1-1.82-1.92V38.68h3.2v-1.2h-3.2v-2.3H-3.26v2.3H-5.14v1.2h1.88v6.36A2.787,2.787,0,0,0-.18,48.1a3.382,3.382,0,0,0,2.22-.74Zm11.88-3.6a5.013,5.013,0,0,0-5.1-5.34,5.067,5.067,0,0,0-5.14,5.34A5.21,5.21,0,0,0,8.7,48.1a5.178,5.178,0,0,0,4.06-1.72l-.8-.92a4.147,4.147,0,0,1-3.22,1.38A3.894,3.894,0,0,1,4.6,43.18h8.8C13.4,43.02,13.42,42.86,13.42,42.74Zm-5.1-4.12a3.659,3.659,0,0,1,3.74,3.5H4.6A3.654,3.654,0,0,1,8.32,38.62ZM29.44,37.4a4.581,4.581,0,0,0-4.16,2.22,3.779,3.779,0,0,0-3.74-2.22,4.254,4.254,0,0,0-3.86,2V37.48H16.32V48h1.42V42.48c0-2.4,1.38-3.8,3.52-3.8,1.92,0,3.04,1.14,3.04,3.36V48h1.42V42.48c0-2.4,1.36-3.8,3.52-3.8,1.9,0,3.02,1.14,3.02,3.36V48h1.42V41.9C33.68,38.88,32,37.4,29.44,37.4Z" transform="translate(151.541 96.237)" fill="#fff"/>
        <path id="garage_FILL0_wght400_GRAD0_opsz48" d="M8.978,69.707A4.776,4.776,0,0,1,4.05,64.779V8.928a4.913,4.913,0,0,1,1.4-3.409A4.589,4.589,0,0,1,8.978,4H64.829a4.713,4.713,0,0,1,3.409,1.519,4.713,4.713,0,0,1,1.519,3.409V64.779a4.589,4.589,0,0,1-1.519,3.532,4.913,4.913,0,0,1-3.409,1.4Zm0-4.928H64.829V8.928H8.978V64.779ZM24.173,44a2.388,2.388,0,1,1,1.766-.7A2.393,2.393,0,0,1,24.173,44Zm25.462,0a2.388,2.388,0,1,1,1.766-.7A2.393,2.393,0,0,1,49.634,44ZM13.906,34.718v22.34a1.963,1.963,0,0,0,1.971,1.971h.986a1.867,1.867,0,0,0,1.437-.575,1.978,1.978,0,0,0,.534-1.4V51.8H54.973v5.257a1.963,1.963,0,0,0,1.971,1.971h.986a1.867,1.867,0,0,0,1.437-.575,1.977,1.977,0,0,0,.534-1.4V34.718L54.48,18.948a4.1,4.1,0,0,0-1.355-1.889,3.318,3.318,0,0,0-2.094-.739H22.777a3.318,3.318,0,0,0-2.094.739,4.1,4.1,0,0,0-1.355,1.889Zm6.324-3.45,3.285-10.02H50.291l3.367,10.02ZM8.978,8.928v0Zm9.856,37.946V36.2H54.973V46.874Z" transform="translate(115.533 -4)" fill="#fff"/>
      </g>
    </g>
  </g>
</svg>
