<svg xmlns="http://www.w3.org/2000/svg" width="134" height="117" viewBox="0 0 134 117">
  <g id="atencion-digital" transform="translate(-75 -60)">
    <rect id="Rectángulo_3298" data-name="Rectángulo 3298" width="134" height="117" transform="translate(75 60)" fill="#fff"/>
    <g id="Grupo_21251" data-name="Grupo 21251" transform="translate(5522.524 23668.586)">
      <path id="Trazado_41014" data-name="Trazado 41014" d="M339.855,565.524H266.279a5.89,5.89,0,0,1-5.884-5.883V503.608a5.89,5.89,0,0,1,5.884-5.884H347.76a5.89,5.89,0,0,1,5.884,5.884v37.623a1.337,1.337,0,0,1-2.674,0V503.608a3.214,3.214,0,0,0-3.21-3.211H266.279a3.214,3.214,0,0,0-3.21,3.211v56.033a3.213,3.213,0,0,0,3.21,3.21h73.577a1.337,1.337,0,1,1,0,2.674" transform="translate(-5693.919 -24089.311)" fill="#12032c"/>
      <path id="Trazado_41015" data-name="Trazado 41015" d="M352.307,511.753H261.732a1.337,1.337,0,1,1,0-2.674h90.575a1.337,1.337,0,0,1,0,2.674" transform="translate(-5693.919 -24089.816)" fill="#12032c"/>
      <path id="Trazado_41016" data-name="Trazado 41016" d="M268.095,506.054a1.357,1.357,0,0,1-.947-.389,1.5,1.5,0,0,1-.29-.436,1.453,1.453,0,0,1-.1-.512,1.34,1.34,0,0,1,.39-.947,1.5,1.5,0,0,1,.436-.291,1.355,1.355,0,0,1,.779-.069,1.284,1.284,0,0,1,.245.069,1.4,1.4,0,0,1,.435.291,1.5,1.5,0,0,1,.291.436,1.368,1.368,0,0,1,0,1.023,1.322,1.322,0,0,1-.5.6,1.092,1.092,0,0,1-.229.122,2.309,2.309,0,0,1-.245.076,1.577,1.577,0,0,1-.268.023" transform="translate(-5694.202 -24089.563)" fill="#12032c"/>
      <path id="Trazado_41017" data-name="Trazado 41017" d="M277.687,506.054a1.3,1.3,0,0,1-.512-.1,1.52,1.52,0,0,1-.435-.29,1.4,1.4,0,0,1-.291-.436,1.367,1.367,0,0,1,0-1.023,1.338,1.338,0,0,1,.725-.726,1.372,1.372,0,0,1,1.459.291,1.352,1.352,0,0,1,.39.947,1.3,1.3,0,0,1-.1.512,1.322,1.322,0,0,1-.5.6,1.09,1.09,0,0,1-.229.122,1.3,1.3,0,0,1-.512.1" transform="translate(-5694.628 -24089.563)" fill="#12032c"/>
      <path id="Trazado_41018" data-name="Trazado 41018" d="M272.891,506.054a1.326,1.326,0,0,1-.939-.389,1.245,1.245,0,0,1-.29-.436,1.311,1.311,0,0,1,.29-1.459,1.376,1.376,0,0,1,.427-.29,1.341,1.341,0,0,1,1.459.29,1.5,1.5,0,0,1,.29.436,1.367,1.367,0,0,1,0,1.023,1.5,1.5,0,0,1-.29.436,1.329,1.329,0,0,1-.947.389" transform="translate(-5694.415 -24089.563)" fill="#12032c"/>
      <path id="Trazado_41019" data-name="Trazado 41019" d="M360.938,582.233a1.337,1.337,0,0,1-1.2-.751l-3.851-7.908-5.025,2.448a1.336,1.336,0,0,1-1.922-1.2V546.735a1.336,1.336,0,0,1,2.282-.945L370.1,564.675a1.337,1.337,0,0,1-.359,2.147l-4.56,2.221,3.852,7.909a1.337,1.337,0,0,1-.617,1.787l-6.9,3.359a1.331,1.331,0,0,1-.584.135M356.5,570.45a1.335,1.335,0,0,1,1.2.751l3.851,7.908,4.494-2.188-3.851-7.909a1.337,1.337,0,0,1,.615-1.788l4.076-1.985-15.277-15.278v22.72l4.3-2.1a1.351,1.351,0,0,1,.586-.135" transform="translate(-5697.852 -24091.428)" fill="#12032c"/>
      <path id="Trazado_41020" data-name="Trazado 41020" d="M288.673,545.568a1.338,1.338,0,0,1-1.158-.67l-3.859-6.7-3.859,6.7a1.351,1.351,0,0,1-1.306.661,1.335,1.335,0,0,1-1.129-.934l-3.878-12.547a1.337,1.337,0,1,1,2.554-.789l2.972,9.617,3.487-6.055a1.337,1.337,0,0,1,2.317,0l3.486,6.055,2.972-9.617a1.337,1.337,0,1,1,2.554.789l-3.877,12.547a1.335,1.335,0,0,1-1.129.934,1.313,1.313,0,0,1-.149.009" transform="translate(-5694.498 -24090.76)" fill="#12032c"/>
      <path id="Trazado_41021" data-name="Trazado 41021" d="M303.694,545.568a1.313,1.313,0,0,1-.149-.009,1.335,1.335,0,0,1-1.129-.934l-3.877-12.547a1.337,1.337,0,1,1,2.554-.789l2.972,9.617,3.487-6.055a1.336,1.336,0,0,1,2.316,0l3.487,6.055,2.972-9.617a1.337,1.337,0,1,1,2.554.789l-3.877,12.547a1.337,1.337,0,0,1-2.436.272l-3.859-6.7-3.859,6.7a1.338,1.338,0,0,1-1.158.67" transform="translate(-5695.61 -24090.76)" fill="#12032c"/>
      <path id="Trazado_41022" data-name="Trazado 41022" d="M328.749,545.568a1.311,1.311,0,0,1-.149-.009,1.335,1.335,0,0,1-1.129-.934l-3.877-12.547a1.337,1.337,0,1,1,2.554-.789l2.972,9.617,3.486-6.055a1.337,1.337,0,0,1,2.317,0l3.487,6.055,2.972-9.617a1.337,1.337,0,1,1,2.554.789l-3.878,12.547a1.336,1.336,0,0,1-2.435.272l-3.859-6.7-3.859,6.7a1.337,1.337,0,0,1-1.158.67" transform="translate(-5696.723 -24090.76)" fill="#12032c"/>
    </g>
  </g>
</svg>
