<svg xmlns="http://www.w3.org/2000/svg" width="134" height="117" viewBox="0 0 134 117">
  <g id="blaster" transform="translate(-380 -60)">
    <rect id="Rectángulo_3300" data-name="Rectángulo 3300" width="134" height="117" transform="translate(380 60)" fill="#fff"/>
    <g id="Grupo_21243" data-name="Grupo 21243" transform="translate(5832.493 23466.127)">
      <path id="Trazado_40967" data-name="Trazado 40967" d="M275.832,779.323a1.628,1.628,0,0,1-1.628-1.628V759.54a1.628,1.628,0,0,1,3.256,0v18.155a1.628,1.628,0,0,1-1.628,1.628" transform="translate(-5705.697 -24116.025)" fill="#12032c"/>
      <path id="Trazado_40968" data-name="Trazado 40968" d="M282.128,785.5a1.628,1.628,0,0,1-1.628-1.628V754.888a1.628,1.628,0,1,1,3.256,0V783.87a1.628,1.628,0,0,1-1.628,1.628" transform="translate(-5704.667 -24116.787)" fill="#12032c"/>
      <path id="Trazado_40969" data-name="Trazado 40969" d="M288.423,779.323a1.628,1.628,0,0,1-1.628-1.628V759.54a1.628,1.628,0,0,1,3.256,0v18.155a1.628,1.628,0,0,1-1.628,1.628" transform="translate(-5703.637 -24116.025)" fill="#12032c"/>
      <path id="Trazado_40970" data-name="Trazado 40970" d="M294.718,785.5a1.628,1.628,0,0,1-1.628-1.628V754.888a1.628,1.628,0,1,1,3.256,0V783.87a1.628,1.628,0,0,1-1.628,1.628" transform="translate(-5702.606 -24116.787)" fill="#12032c"/>
      <path id="Trazado_40971" data-name="Trazado 40971" d="M301.013,799.095a1.628,1.628,0,0,1-1.628-1.628V744.644a1.628,1.628,0,1,1,3.256,0v52.823a1.628,1.628,0,0,1-1.628,1.628" transform="translate(-5701.576 -24118.465)" fill="#12032c"/>
      <path id="Trazado_40972" data-name="Trazado 40972" d="M307.308,810.136a1.628,1.628,0,0,1-1.628-1.628V736.327a1.628,1.628,0,0,1,3.256,0v72.181a1.628,1.628,0,0,1-1.628,1.628" transform="translate(-5700.545 -24119.826)" fill="#12032c"/>
      <path id="Trazado_40973" data-name="Trazado 40973" d="M313.6,799.095a1.628,1.628,0,0,1-1.628-1.628V744.644a1.628,1.628,0,1,1,3.256,0v52.823a1.628,1.628,0,0,1-1.628,1.628" transform="translate(-5699.515 -24118.465)" fill="#12032c"/>
      <path id="Trazado_40974" data-name="Trazado 40974" d="M319.9,785.5a1.628,1.628,0,0,1-1.628-1.628V754.888a1.628,1.628,0,1,1,3.256,0V783.87A1.628,1.628,0,0,1,319.9,785.5" transform="translate(-5698.484 -24116.787)" fill="#12032c"/>
      <path id="Trazado_40975" data-name="Trazado 40975" d="M326.193,779.323a1.628,1.628,0,0,1-1.628-1.628V759.54a1.628,1.628,0,0,1,3.256,0v18.155a1.628,1.628,0,0,1-1.628,1.628" transform="translate(-5697.454 -24116.025)" fill="#12032c"/>
      <path id="Trazado_40976" data-name="Trazado 40976" d="M332.488,785.5a1.628,1.628,0,0,1-1.628-1.628V754.888a1.628,1.628,0,1,1,3.256,0V783.87a1.628,1.628,0,0,1-1.628,1.628" transform="translate(-5696.423 -24116.787)" fill="#12032c"/>
      <path id="Trazado_40977" data-name="Trazado 40977" d="M338.783,799.532a1.628,1.628,0,0,1-1.628-1.628V744.315a1.628,1.628,0,0,1,3.256,0V797.9a1.628,1.628,0,0,1-1.628,1.628" transform="translate(-5695.393 -24118.518)" fill="#12032c"/>
      <path id="Trazado_40978" data-name="Trazado 40978" d="M345.078,784.437a1.628,1.628,0,0,1-1.628-1.628V755.687a1.628,1.628,0,0,1,3.256,0v27.122a1.628,1.628,0,0,1-1.628,1.628" transform="translate(-5694.363 -24116.656)" fill="#12032c"/>
      <path id="Trazado_40979" data-name="Trazado 40979" d="M351.374,779.323a1.628,1.628,0,0,1-1.628-1.628V759.54a1.628,1.628,0,0,1,3.256,0v18.155a1.628,1.628,0,0,1-1.628,1.628" transform="translate(-5693.333 -24116.025)" fill="#12032c"/>
    </g>
  </g>
</svg>
