<svg xmlns="http://www.w3.org/2000/svg" width="134" height="117" viewBox="0 0 134 117">
  <g id="call-on-demand" transform="translate(-692 -60)">
    <rect id="Rectángulo_3302" data-name="Rectángulo 3302" width="134" height="117" transform="translate(692 60)" fill="#fff"/>
    <g id="Grupo_21256" data-name="Grupo 21256" transform="translate(5660.125 23959.115)">
      <path id="Trazado_41009" data-name="Trazado 41009" d="M880.338,248.328H852.049a9.272,9.272,0,0,1-9.261-9.262v-66.7a9.271,9.271,0,0,1,9.261-9.261h28.288a9.272,9.272,0,0,1,9.263,9.261v1.293a1.483,1.483,0,1,1-2.966,0v-1.293a6.3,6.3,0,0,0-6.3-6.3H852.049a6.3,6.3,0,0,0-6.3,6.3v66.7a6.3,6.3,0,0,0,6.3,6.3h28.288a6.3,6.3,0,0,0,6.3-6.3V234.8a1.483,1.483,0,0,1,2.966,0v4.263a9.273,9.273,0,0,1-9.263,9.262" transform="translate(-5778.913 -24046.223)" fill="#12032c"/>
      <path id="Trazado_41010" data-name="Trazado 41010" d="M873.9,172.375H864a1.483,1.483,0,0,1,0-2.966h9.9a1.483,1.483,0,0,1,0,2.966" transform="translate(-5781.67 -24047.102)" fill="#12032c"/>
      <path id="Trazado_41011" data-name="Trazado 41011" d="M865.619,233.175a3.729,3.729,0,0,1-3.443-5.089l3.341-8.485a26.649,26.649,0,1,1,10.206,10.065l-8.79,3.27a3.764,3.764,0,0,1-1.314.24M888.6,182.714q-.947,0-1.9.075A23.669,23.669,0,0,0,868.428,218.7a1.487,1.487,0,0,1,.115,1.317l-3.607,9.161a.753.753,0,0,0,.964.982l9.44-3.512a1.488,1.488,0,0,1,1.272.113A23.663,23.663,0,1,0,888.6,182.714m-2.016-1.4h0Z" transform="translate(-5781.585 -24048.549)" fill="#12032c"/>
      <path id="Trazado_41012" data-name="Trazado 41012" d="M897.361,211.885H892.3a1.483,1.483,0,0,1-1.483-1.483v-6.639a1.483,1.483,0,0,1,2.966,0v5.156h3.58a1.483,1.483,0,0,1,0,2.966" transform="translate(-5785.625 -24051.697)" fill="#12032c"/>
      <path id="Trazado_41013" data-name="Trazado 41013" d="M890.538,223.214a14.821,14.821,0,1,1,14.82-14.821,14.838,14.838,0,0,1-14.82,14.821m0-26.676a11.855,11.855,0,1,0,11.854,11.854,11.868,11.868,0,0,0-11.854-11.854" transform="translate(-5783.515 -24050.48)" fill="#12032c"/>
    </g>
  </g>
</svg>
