<svg xmlns="http://www.w3.org/2000/svg" width="134" height="117" viewBox="0 0 134 117">
  <g id="Chat-proactivo" transform="translate(-838 -60)">
    <rect id="Rectángulo_3302" data-name="Rectángulo 3302" width="134" height="117" transform="translate(838 60)" fill="#fff"/>
    <g id="Grupo_21250" data-name="Grupo 21250" transform="translate(5632.771 23861.607)">
      <path id="Trazado_40946" data-name="Trazado 40946" d="M1102.5,318.121h3.424a5.886,5.886,0,1,0,0-1.17H1102.5a26.141,26.141,0,0,0-7.265-17.547l6.826-6.842a7.676,7.676,0,1,0-.846-.808l-6.807,6.823a26.138,26.138,0,0,0-17.547-7.27v-3.381a5.89,5.89,0,1,0-1.169,0v3.381a26.138,26.138,0,0,0-17.547,7.27l-7.357-7.371a7.5,7.5,0,0,0-1.072-10.541.585.585,0,0,0-.74.906,6.319,6.319,0,1,1-5.164-1.32.585.585,0,0,0-.214-1.15,7.5,7.5,0,0,0,1.388,14.87,7.505,7.505,0,0,0,5-1.918l7.335,7.351a26.14,26.14,0,0,0-7.264,17.547h-3.422a5.892,5.892,0,1,0,0,1.17h3.424a26.141,26.141,0,0,0,7.27,17.541l-7.061,7.061a7.656,7.656,0,1,0,.807.848l7.081-7.081a26.141,26.141,0,0,0,17.542,7.264v3.465a5.89,5.89,0,1,0,1.169,0v-3.465a26.141,26.141,0,0,0,17.542-7.264l6.919,6.919a7.494,7.494,0,1,0,12.493,2.079.585.585,0,0,0-1.077.456,6.318,6.318,0,1,1-3.949-3.581.585.585,0,0,0,.347-1.117,7.5,7.5,0,0,0-6.968,1.355l-6.938-6.938a26.14,26.14,0,0,0,7.271-17.541m9.285-5.312a4.721,4.721,0,1,1-4.721,4.721,4.727,4.727,0,0,1,4.721-4.721m-4.878-32.664a6.489,6.489,0,1,1-6.49,6.49,6.5,6.5,0,0,1,6.49-6.49m-35.351,1.919a4.721,4.721,0,1,1,4.721,4.721,4.727,4.727,0,0,1-4.721-4.721m-30.786,40.187a4.721,4.721,0,1,1,4.721-4.721,4.726,4.726,0,0,1-4.721,4.721m4.366,32.644a6.489,6.489,0,1,1,6.489-6.489,6.5,6.5,0,0,1-6.489,6.489M1081,353.08a4.721,4.721,0,1,1-4.721-4.721A4.726,4.726,0,0,1,1081,353.08m13-17.83a24.979,24.979,0,1,1,5.371-7.966A24.981,24.981,0,0,1,1094,335.25" transform="translate(-5803.648 -24060.781)" fill="#12032c"/>
      <path id="Trazado_40947" data-name="Trazado 40947" d="M1095.926,316.613h-.844a8.45,8.45,0,0,0-8.4-7.916h-5.876v-2.845a1.851,1.851,0,1,0-.671,0V308.7h-7.66a8.451,8.451,0,0,0-8.4,7.916h-.791a2.562,2.562,0,0,0-2.547,2.57v4.8a2.562,2.562,0,0,0,2.547,2.57h.815a8.5,8.5,0,0,0,8.377,7.66h14.21a8.5,8.5,0,0,0,8.377-7.66h.862a2.561,2.561,0,0,0,2.546-2.57v-4.8a2.562,2.562,0,0,0-2.546-2.57m-16.865-12.6a1.411,1.411,0,1,1,1.41,1.424,1.42,1.42,0,0,1-1.41-1.424m-15.005,21.863h-.77a1.891,1.891,0,0,1-1.879-1.9v-4.8a1.892,1.892,0,0,1,1.879-1.9h.768V325.7c0,.059,0,.118,0,.177Zm30.375.14-.006.151h0c0,.074-.008.149-.014.221a7.838,7.838,0,0,1-7.725,7.148h-14.21a7.838,7.838,0,0,1-7.725-7.148c-.01-.124-.018-.247-.023-.372v0c0-.1-.008-.208-.008-.315v-8.416l0-.146c0-.124,0-.248.01-.371v-.008a7.789,7.789,0,0,1,7.743-7.392h14.207a7.789,7.789,0,0,1,7.744,7.4l.008.139h0l0,.09v8.7c0,.108,0,.213-.008.319m3.374-2.04a1.891,1.891,0,0,1-1.879,1.9h-.819c0-.058,0-.118,0-.177v-8.418h.816a1.892,1.892,0,0,1,1.879,1.9Z" transform="translate(-5806.978 -24064.127)" fill="#12032c"/>
      <path id="Trazado_40948" data-name="Trazado 40948" d="M1087.473,316.147H1073.62a5.441,5.441,0,0,0,0,10.882h13.854a5.441,5.441,0,0,0,0-10.882m0,10.212H1073.62a4.771,4.771,0,0,1,0-9.541h13.854a4.771,4.771,0,0,1,0,9.541" transform="translate(-5807.943 -24065.93)" fill="#12032c"/>
      <path id="Trazado_40949" data-name="Trazado 40949" d="M1088.256,319.15a2.826,2.826,0,1,0,2.8,2.825,2.815,2.815,0,0,0-2.8-2.825m0,4.98a2.155,2.155,0,1,1,2.132-2.155,2.146,2.146,0,0,1-2.132,2.155" transform="translate(-5810.161 -24066.316)" fill="#12032c"/>
      <path id="Trazado_40950" data-name="Trazado 40950" d="M1075.794,319.15a2.826,2.826,0,1,0,2.8,2.825,2.815,2.815,0,0,0-2.8-2.825m0,4.98a2.155,2.155,0,1,1,2.131-2.155,2.147,2.147,0,0,1-2.131,2.155" transform="translate(-5808.556 -24066.316)" fill="#12032c"/>
    </g>
  </g>
</svg>
