<svg xmlns="http://www.w3.org/2000/svg" width="134" height="117" viewBox="0 0 134 117">
  <g id="click-to-action" transform="translate(-229 -197)">
    <rect id="Rectángulo_3304" data-name="Rectángulo 3304" width="134" height="117" transform="translate(229 197)" fill="#fff"/>
    <g id="Grupo_21247" data-name="Grupo 21247" transform="translate(5027.677 23429.758)">
      <path id="Trazado_40923" data-name="Trazado 40923" d="M1065.3,952.937l34.4,24.037a1.13,1.13,0,0,1,.28,1.573,1.149,1.149,0,0,1-.614.438v0l-11.64,3.32,9.554,16.546a1.13,1.13,0,0,1-.412,1.538l-8.1,4.676a1.126,1.126,0,0,1-1.543-.409l-.035-.064-9.519-16.485-8.691,8.418a1.128,1.128,0,0,1-1.913-.713h0l-3.626-41.913a1.135,1.135,0,0,1,1.858-.964m-8.9-10.889a1.13,1.13,0,1,1,1.956-1.133l3.251,5.634a1.129,1.129,0,0,1-1.952,1.133Zm.011,20.619a1.13,1.13,0,0,1,1.131,1.956l-5.633,3.254a1.13,1.13,0,0,1-1.133-1.956Zm-1.09-8.679a1.13,1.13,0,1,1-.583,2.183l-6.282-1.685a1.13,1.13,0,1,1,.583-2.183Zm26.517-6a1.129,1.129,0,1,1,1.134,1.952l-5.634,3.254a1.13,1.13,0,0,1-1.133-1.956Zm-12.467-2a1.132,1.132,0,0,1-2.186-.585l1.684-6.282a1.13,1.13,0,1,1,2.184.582Zm27.1,31.473-30.559-21.351,3.214,37.139,8.021-7.771a1.648,1.648,0,0,1,.226-.167,1.131,1.131,0,0,1,1.541.416l9.709,16.82,6.147-3.549-9.664-16.736a1.232,1.232,0,0,1-.161-.337,1.133,1.133,0,0,1,.779-1.4Z" transform="translate(-5805.288 -24146.041)" fill="#12032c"/>
    </g>
  </g>
</svg>
