<svg xmlns="http://www.w3.org/2000/svg" width="134" height="117" viewBox="0 0 134 117">
  <g id="encuestas" transform="translate(-535 -60)">
    <rect id="Rectángulo_3301" data-name="Rectángulo 3301" width="134" height="117" transform="translate(535 60)" fill="#fff"/>
    <g id="Grupo_21254" data-name="Grupo 21254" transform="translate(5722.294 23960.432)">
      <path id="Trazado_41005" data-name="Trazado 41005" d="M625.225,214.8a27.615,27.615,0,0,0,7.392-27.618,27.576,27.576,0,0,0-20.484-19.192,27.778,27.778,0,0,0-7.661-.6,27.543,27.543,0,0,0-25.513,22.987,28.76,28.76,0,0,0-.037,8.813,27.112,27.112,0,0,0,2.843,8.585,26.036,26.036,0,0,0,1.922,3.1q-.222,1.338-.445,2.677l-.931,5.589q-.107.64-.214,1.282a1.694,1.694,0,0,0,.417,1.577,1.673,1.673,0,0,0,1.577.416l3.984-.781,6.345-1.242.843-.166a28.128,28.128,0,0,0,9.069,2.184,27.5,27.5,0,0,0,20.893-7.608M609.4,219.023a26.533,26.533,0,0,1-6.539,0,26.189,26.189,0,0,1-6.182-1.689c-.143-.062-.287-.124-.43-.188A1.757,1.757,0,0,0,595,216.98l-3.985.781-5.388,1.055.429-2.571c.3-1.777.609-3.551.887-5.33a1.724,1.724,0,0,0-.212-1.329c-.173-.254-.363-.5-.539-.749q-.5-.725-.955-1.485a23.842,23.842,0,0,1-3.217-9.191,26.463,26.463,0,0,1,0-6.517,24.323,24.323,0,0,1,20.862-20.862,26.468,26.468,0,0,1,6.516,0,24.32,24.32,0,0,1,20.862,20.862,26.481,26.481,0,0,1,0,6.517,24.2,24.2,0,0,1-4.85,11.606,24.416,24.416,0,0,1-9.82,7.568,26.037,26.037,0,0,1-6.191,1.688" transform="translate(-5744.894 -24046.768)" fill="#12032c"/>
      <path id="Trazado_41006" data-name="Trazado 41006" d="M675.745,208.341a27.53,27.53,0,0,0-29.907-17.555c-.644.091-1.284.208-1.92.347a1.631,1.631,0,0,0-1.132,1.993,1.659,1.659,0,0,0,1.993,1.133c.612-.134,1.228-.244,1.847-.334a26.582,26.582,0,0,1,6.572-.008,24.228,24.228,0,0,1,11.6,4.85,24.414,24.414,0,0,1,7.568,9.82,26.028,26.028,0,0,1,1.688,6.193,26.522,26.522,0,0,1,0,6.516,26.111,26.111,0,0,1-1.7,6.217,25.831,25.831,0,0,1-1.327,2.646q-.388.674-.817,1.325c-.293.444-.626.861-.918,1.3-.43.652-.048,1.945.077,2.693q.538,3.233,1.078,6.47l-1.8-.353-6.393-1.252-.954-.187-.2-.04a1.541,1.541,0,0,0-.455-.063,3.588,3.588,0,0,0-1.277.422,26.187,26.187,0,0,1-6.152,1.677,26.583,26.583,0,0,1-6.556,0,24.233,24.233,0,0,1-11.6-4.855,24.384,24.384,0,0,1-7.294-9.209,1.631,1.631,0,0,0-.969-.746,1.62,1.62,0,0,0-1.993,1.133,1.845,1.845,0,0,0,.163,1.249,27.526,27.526,0,0,0,25.59,15.87,27.266,27.266,0,0,0,9.56-1.946c.234-.095.468-.193.7-.293l3.378.662,6.344,1.242,1.447.283a1.673,1.673,0,0,0,1.577-.417,1.69,1.69,0,0,0,.416-1.576q-.291-1.754-.584-3.507-.465-2.794-.93-5.59c-.025-.151-.05-.3-.075-.45a27.621,27.621,0,0,0,4.962-13.2,27.181,27.181,0,0,0-1.616-12.46" transform="translate(-5750.839 -24049.748)" fill="#12032c"/>
      <path id="Trazado_41007" data-name="Trazado 41007" d="M617.125,206.787l-1.894-1.741a8.207,8.207,0,0,0,1.369-3.737,12.022,12.022,0,0,0,.057-1.513v-2.155c0-1.25,0-2.5,0-3.75a8.56,8.56,0,0,0-.809-3.57,8.218,8.218,0,0,0-10.043-4.211,8.308,8.308,0,0,0-5.28,5.7,8.572,8.572,0,0,0-.26,2.053v3.4c0,1.17-.051,2.352.009,3.522a8.191,8.191,0,0,0,11.916,6.951,7.019,7.019,0,0,0,.725-.419l1.106,1.016.813.747a1.621,1.621,0,1,0,2.292-2.292m-9.329-1.432a6.776,6.776,0,0,1-1.265-.346,6.7,6.7,0,0,1-1.1-.647,4.964,4.964,0,0,1-1.887-3.287c-.08-.829-.032-1.681-.032-2.509v-4.7c0-.222.015-.443.036-.663a4.961,4.961,0,0,1,4.253-4.254,6.92,6.92,0,0,1,1.329,0,4.946,4.946,0,0,1,2.371.993,4.96,4.96,0,0,1,1.886,3.285c.088.9.033,1.837.033,2.741v3.873c0,.423,0,.842-.038,1.263a6.8,6.8,0,0,1-.346,1.267c-.07.152-.147.3-.228.447l-1.44-1.324-.814-.747a1.621,1.621,0,0,0-2.292,2.292L610.4,205l-.01,0a6.748,6.748,0,0,1-1.265.346,6.91,6.91,0,0,1-1.329,0" transform="translate(-5747.681 -24049.127)" fill="#12032c"/>
      <path id="Trazado_41008" data-name="Trazado 41008" d="M658.163,229.364a1.621,1.621,0,0,0,3.241,0V218.592a9.374,9.374,0,0,0-.512-3.653,7.389,7.389,0,0,0-.939-1.713,7.86,7.86,0,0,0-1.456-1.492,7.418,7.418,0,0,0-1.683-.984,7.814,7.814,0,0,0-2.113-.543,7.47,7.47,0,0,0-8.219,6.713,9,9,0,0,0-.044,1.1v11.34a1.621,1.621,0,0,0,3.242,0V224.3h8.484v5.063Zm-8.484-8.3V218.8c0-.565-.023-1.14.027-1.7a4.251,4.251,0,0,1,3.637-3.664,6.229,6.229,0,0,1,1.155,0,4.224,4.224,0,0,1,2.02.849,4.233,4.233,0,0,1,1.609,2.77c.045.491.035.987.035,1.48v2.532h-8.484Z" transform="translate(-5753.629 -24052.281)" fill="#12032c"/>
    </g>
  </g>
</svg>
