<svg xmlns="http://www.w3.org/2000/svg" width="134" height="117" viewBox="0 0 134 117">
  <g id="IVR" transform="translate(-692 -197)">
    <rect id="Rectángulo_3304" data-name="Rectángulo 3304" width="134" height="117" transform="translate(692 197)" fill="#fff"/>
    <g id="Grupo_21244" data-name="Grupo 21244" transform="translate(6061.299 23437.734)">
      <path id="Trazado_40921" data-name="Trazado 40921" d="M480.785,958.348c-.09-.022-.182-.042-.263-.058a5.4,5.4,0,0,0-.9-.1l-.157,0a5.417,5.417,0,0,0-2.791.777.911.911,0,0,0-.441.756,13.861,13.861,0,0,1-1.444,5.792.9.9,0,0,0,.035.872,5.442,5.442,0,0,0,1.689,1.756.4.4,0,0,1,.118.56,17.247,17.247,0,0,1-2.219,2.745.405.405,0,0,1-.286.12h0a.406.406,0,0,1-.285-.118,5.446,5.446,0,0,0-2.067-1.286.911.911,0,0,0-.862.147,13.86,13.86,0,0,1-5.366,2.617.91.91,0,0,0-.646.589,5.4,5.4,0,0,0,.136,3.891l.026.061c.029.067.058.137.089.2a5.381,5.381,0,0,0,7.2,2.512l.047-.027a23.163,23.163,0,0,0,12.319-15.221v0l0-.015a5.425,5.425,0,0,0-3.942-6.564m2.127,6.139a21.32,21.32,0,0,1-11.139,13.927.4.4,0,0,1-.217.266l-.171.083a3.143,3.143,0,0,1-1.361.42v0a3.709,3.709,0,0,1-3.232-2.173,1.016,1.016,0,0,1-.063-.194c-.005-.021-.01-.042-.015-.058a3.75,3.75,0,0,1-.282-1.288,4.327,4.327,0,0,1,.027-.641.4.4,0,0,1,.287-.337,15.667,15.667,0,0,0,4.669-2.278.408.408,0,0,1,.442-.018,3.6,3.6,0,0,1,1.278,1.3l.035.062a.9.9,0,0,0,.633.451.892.892,0,0,0,.162.015.911.911,0,0,0,.591-.218c.252-.214.5-.438.739-.665a19.026,19.026,0,0,0,3.672-4.791.912.912,0,0,0-.538-1.306,3.568,3.568,0,0,1-1.594-1,.4.4,0,0,1-.073-.435,15.65,15.65,0,0,0,1.257-5.041.407.407,0,0,1,.27-.351,3.561,3.561,0,0,1,1.179-.2l.106,0a3.607,3.607,0,0,1,.6.069.475.475,0,0,1,.146.053,3.548,3.548,0,0,1,2.153,1.65,3.423,3.423,0,0,1,.392,2.389.411.411,0,0,1,.049.314" transform="translate(-5740.496 -24151.621)" fill="#12032c"/>
      <path id="Trazado_40922" data-name="Trazado 40922" d="M428.284,997.327a3.566,3.566,0,0,1-3.346-3.591v-4.182a1.132,1.132,0,0,0-.825-1.083,26.843,26.843,0,0,1-5.754-2.384,1.15,1.15,0,0,0-.555-.143,1.12,1.12,0,0,0-.8.332l-2.957,2.964a3.368,3.368,0,0,1-4.745.033l-4.519-4.474a3.257,3.257,0,0,1,0-4.654l1.077-.9a.2.2,0,0,0,.06-.225.2.2,0,0,0-.19-.133H397.87a.2.2,0,0,0-.153.07l-5.842,6.769a.2.2,0,0,0-.027.224,3.535,3.535,0,0,1-.692,4.215,3.781,3.781,0,1,1-1.122-6.122.194.194,0,0,0,.083.018.2.2,0,0,0,.154-.072L396.4,976.7a1.109,1.109,0,0,1,.852-.394h10.605a.2.2,0,0,0,.166-.319,1.8,1.8,0,0,0-.1-.226c-.584-1.048-1.092-2.174-1.539-3.168l-.028-.061a.2.2,0,0,0-.184-.12H385.385a.2.2,0,0,0-.14.056l-8.007,7.655a.2.2,0,0,0-.043.234,3.611,3.611,0,0,1-.741,4.195,3.785,3.785,0,1,1-1.017-6.051.2.2,0,0,0,.229-.036l8.411-8.123a1.071,1.071,0,0,1,.775-.265h20.423a.2.2,0,0,0,.171-.311,1.236,1.236,0,0,0-.986-.592h-4.18a3.561,3.561,0,0,1-3.493-3.446v-1.583a.2.2,0,0,0-.2-.2H369.2a.2.2,0,0,0-.191.133,3.769,3.769,0,0,1-3.569,2.411,3.9,3.9,0,0,1-3.781-3.906,3.762,3.762,0,0,1,3.781-3.734,3.63,3.63,0,0,1,3.567,2.62.2.2,0,0,0,.193.142h27.383a.2.2,0,0,0,.2-.2v-2.068a3.364,3.364,0,0,1,3.492-3.21h4.18a1.109,1.109,0,0,0,1.008-.889.2.2,0,0,0-.029-.181.2.2,0,0,0-.164-.083H384.85a1.061,1.061,0,0,1-.775-.258l-8.411-8.092a.207.207,0,0,0-.14-.056.2.2,0,0,0-.089.021,3.785,3.785,0,0,1-4.33-.726,3.779,3.779,0,1,1,6.088-1.036.2.2,0,0,0,.042.232l8.008,7.772a.2.2,0,0,0,.14.057h20.793a.2.2,0,0,0,.184-.119c.107-.238.218-.493.334-.758.366-.835.779-1.783,1.233-2.595a.789.789,0,0,0,.137-.456.2.2,0,0,0-.2-.214H397.256a1.107,1.107,0,0,1-.853-.387l-6.132-7.286a.2.2,0,0,0-.238-.054,3.847,3.847,0,1,1,1.813-1.79.2.2,0,0,0,.026.223l5.843,6.887a.2.2,0,0,0,.154.072h7.862a.2.2,0,0,0,.138-.35l-1.09-1.026a3.273,3.273,0,0,1,.005-4.677l4.519-4.52a3.355,3.355,0,0,1,4.745,0l2.958,2.958a1.123,1.123,0,0,0,.8.328,1.143,1.143,0,0,0,.555-.144,26.8,26.8,0,0,1,5.752-2.384,1.134,1.134,0,0,0,.825-1.085v-4.18a3.355,3.355,0,0,1,3.347-3.356h3.195a1.036,1.036,0,0,1,1.025,1.114v18.566a1.164,1.164,0,0,1-1.069,1.208,13.712,13.712,0,0,0-13.653,12.521.2.2,0,0,0,.052.155.2.2,0,0,0,.15.066h17.464a.2.2,0,0,0,.2-.2V948.036a1.081,1.081,0,0,1,1.061-1.123h29a1.179,1.179,0,0,1,1.172,1.123v29a1.408,1.408,0,0,1-1.172,1.358h-29c-.6,0-1.061-.73-1.061-1.358V964.149a.2.2,0,0,0-.2-.2H417.984a.2.2,0,0,0-.2.222,13.8,13.8,0,0,0,13.653,12.278.957.957,0,0,1,1.069.967v18.564c0,.637-.438,1.35-1.025,1.35Zm-10.5-13.612a3.3,3.3,0,0,1,1.624.427,24.42,24.42,0,0,0,5.238,2.184,3.3,3.3,0,0,1,2.374,3.229v4.181a1.362,1.362,0,0,0,1.26,1.255h1.932a.2.2,0,0,0,.2-.2V978.676a.2.2,0,0,0-.186-.2,15.991,15.991,0,0,1,0-31.876.2.2,0,0,0,.186-.2V930.519a.2.2,0,0,0-.2-.2h-1.932a1.154,1.154,0,0,0-1.26,1.021v4.181a3.3,3.3,0,0,1-2.374,3.228,24.007,24.007,0,0,0-5.206,2.184,3.375,3.375,0,0,1-1.64.427,3.332,3.332,0,0,1-2.372-.982l-2.958-2.958a1.129,1.129,0,0,0-1.594,0l-4.519,4.52a1.133,1.133,0,0,0,0,1.6l2.957,2.961a3.357,3.357,0,0,1,.411.512.646.646,0,0,1,.047.08l.029.051a3.454,3.454,0,0,1,.069,3.426,25.2,25.2,0,0,0-2.185,5.333,3.482,3.482,0,0,1-3.229,2.567h-4.18c-.735,0-1.156.318-1.156.875v6.391a1.136,1.136,0,0,0,1.156,1.111h4.18a3.374,3.374,0,0,1,3.229,2.448,24.63,24.63,0,0,0,2.185,5.281,3.371,3.371,0,0,1-.063,3.382,1.207,1.207,0,0,1-.079.122,3.32,3.32,0,0,1-.413.507l-2.958,2.957a1.131,1.131,0,0,0,0,1.595l4.519,4.52a1.125,1.125,0,0,0,1.592,0l2.954-2.958a3.324,3.324,0,0,1,2.363-.983m-29.306,2.23a1.553,1.553,0,1,0,1.1.455,1.545,1.545,0,0,0-1.1-.455m-14.7-5.616a1.552,1.552,0,1,0,1.1.454,1.544,1.544,0,0,0-1.1-.454m64.158-31.08a.2.2,0,0,0-.2.2v26.406a.2.2,0,0,0,.2.2h26.406a.2.2,0,0,0,.2-.2V949.451a.2.2,0,0,0-.2-.2Zm-72.5,11.734A1.553,1.553,0,1,0,367,962.536a1.555,1.555,0,0,0-1.553-1.553m8.337-19.345a1.553,1.553,0,1,0,1.1.455,1.545,1.545,0,0,0-1.1-.455m14.7-5.616a1.553,1.553,0,1,0,1.1.454,1.549,1.549,0,0,0-1.1-.454" transform="translate(-5716.959 -24144.715)" fill="#12032c"/>
    </g>
  </g>
</svg>
