<svg xmlns="http://www.w3.org/2000/svg" width="134" height="117" viewBox="0 0 134 117">
  <g id="mail-masivo" transform="translate(-990 -60)">
    <rect id="Rectángulo_3303" data-name="Rectángulo 3303" width="134" height="117" transform="translate(990 60)" fill="#fff"/>
    <g id="Grupo_21258" data-name="Grupo 21258" transform="translate(5679.82 23678.721)">
      <g id="Grupo_21249" data-name="Grupo 21249" transform="translate(-4669.82 -23600.721)">
        <path id="Trazado_40951" data-name="Trazado 40951" d="M1213.155,518.088a1.225,1.225,0,0,0-.144-.181,1.243,1.243,0,0,0-.768-.4.976.976,0,0,0-.614.1l-1.221.4-3.824,1.25-5.671,1.855-6.9,2.255-7.552,2.469-7.622,2.492-7.108,2.324-6.007,1.964-4.334,1.417c-.681.223-1.364.44-2.044.668l-.087.028c-.015,0-.028.011-.043.017a1.1,1.1,0,0,0-.479.288,1.167,1.167,0,0,0-.141.189,1.1,1.1,0,0,0-.2.832.913.913,0,0,0,.337.652l.86.674,2.34,1.838,3.461,2.716,4.224,3.315,2.286,1.794q.107,1.2.212,2.4.191,2.164.384,4.33.192,2.183.387,4.368.127,1.447.256,2.893c.012.138.025.277.036.414a1.189,1.189,0,0,0,2.019.837l2.8-2.543,4.428-4.02.246-.223.6.47,3.682,2.89,2.649,2.079,1.258.986.054.043a1.227,1.227,0,0,0,.993.325,1.125,1.125,0,0,0,.865-.564l.546-1.14q.741-1.542,1.481-3.086,1.1-2.289,2.2-4.579l2.672-5.565,2.926-6.094q1.478-3.075,2.954-6.152l2.765-5.758q1.164-2.424,2.328-4.848l1.68-3.5c.264-.549.533-1.1.792-1.65.012-.023.024-.047.035-.071,0-.009.008-.018.011-.027a1.1,1.1,0,0,0,.108-.255,1.207,1.207,0,0,0-.12-.911m-45.1,22.942-3.682-2.89-2.336-1.833,3.089-1.01,5.672-1.854,6.9-2.255,7.553-2.47,7.623-2.491,7.108-2.324,5.135-1.68-3.091,2.2-3.453,2.45-3.658,2.6-3.756,2.666-3.728,2.646-3.592,2.55-3.3,2.341-2.9,2.057-2.373,1.684-1.73,1.229c-.154.109-.309.218-.463.328l-.661-.519-4.356-3.419m10.928,14.632-3.649,3.312q-.116-1.3-.231-2.605-.191-2.161-.383-4.325-.133-1.5-.266-3.006l4.469,3.507,1.873,1.47-1.813,1.646m27.9-28.77-2.672,5.565-2.926,6.094q-1.475,3.076-2.954,6.152l-2.764,5.759-2.328,4.848q-.839,1.749-1.68,3.5c-.078.163-.157.325-.237.487l-1.932-1.517-3.462-2.716-2.476-1.943a1.38,1.38,0,0,0-.151-.119l-1.6-1.253-4.627-3.632L1175,546.486l2.534-1.8,4.2-2.984,5.128-3.64,5.616-3.987,5.669-4.023,5.3-3.764,4.479-3.179,1.161-.824-.013.026q-1.1,2.291-2.2,4.579" transform="translate(-1148.708 -488.017)" fill="#12032c"/>
        <path id="Trazado_40952" data-name="Trazado 40952" d="M1161.385,554.762l4.414-2.772c.719-.451,1.444-.9,2.159-1.355l.03-.018a1.183,1.183,0,0,0-1.194-2.043l-1.769,1.109-4.246,2.667-5.134,3.224-4.415,2.771c-.719.452-1.444.9-2.159,1.356l-.03.019a1.183,1.183,0,0,0,1.194,2.043l1.768-1.111,4.246-2.666,5.135-3.224" transform="translate(-1148.453 -488.814)" fill="#12032c"/>
        <path id="Trazado_40953" data-name="Trazado 40953" d="M1167.249,558.938c.5-.316,1.011-.626,1.51-.948l.02-.014a1.183,1.183,0,1,0-1.193-2.042l-1.238.777-2.96,1.858-3.593,2.257-3.1,1.943c-.5.316-1.01.626-1.51.948l-.021.013a1.183,1.183,0,1,0,1.194,2.043q.618-.39,1.238-.779l2.959-1.858,3.593-2.255,3.1-1.944" transform="translate(-1148.611 -489.002)" fill="#12032c"/>
        <path id="Trazado_40954" data-name="Trazado 40954" d="M1168.394,563.3l-2.213,1.39-3.532,2.218-.816.511a1.183,1.183,0,0,0,1.195,2.043l2.213-1.39,3.532-2.217.815-.512a1.183,1.183,0,0,0-1.194-2.043" transform="translate(-1148.782 -489.192)" fill="#12032c"/>
        <path id="Trazado_40955" data-name="Trazado 40955" d="M1244.254,534.915a.792.792,0,0,0-.1-.122.844.844,0,0,0-.519-.272.654.654,0,0,0-.414.069l-.824.269-2.579.844L1236,536.955l-4.653,1.521-5.095,1.666-5.141,1.681-4.8,1.568-4.052,1.325-2.924.956c-.459.15-.92.3-1.378.45l-.059.02-.028.011a.738.738,0,0,0-.324.195.78.78,0,0,0-.094.127.733.733,0,0,0-.133.561.611.611,0,0,0,.227.439l.58.455,1.579,1.239,2.334,1.833,2.85,2.237,1.542,1.21q.072.809.143,1.619.13,1.46.259,2.92t.261,2.947l.172,1.951c.009.093.016.186.026.279a.8.8,0,0,0,1.362.564l1.889-1.714,2.987-2.711.166-.151.4.317,2.483,1.95,1.787,1.4.848.664.037.029a.828.828,0,0,0,.67.219.753.753,0,0,0,.583-.381l.368-.769,1-2.081q.743-1.544,1.483-3.088.9-1.878,1.8-3.754.987-2.056,1.974-4.111,1-2.075,1.993-4.15l1.865-3.884,1.57-3.27q.566-1.181,1.133-2.361c.179-.371.36-.74.535-1.114.007-.016.014-.032.022-.048l.008-.018a.751.751,0,0,0,.073-.172.816.816,0,0,0-.081-.615m-30.425,15.477-2.483-1.95-1.575-1.236,2.083-.681,3.827-1.251,4.652-1.521,5.094-1.666,5.142-1.681,4.795-1.568,3.464-1.133-2.085,1.481-2.33,1.653-2.468,1.752-2.533,1.8-2.514,1.785-2.423,1.72-2.225,1.579-1.955,1.387-1.6,1.137-1.166.828-.313.221-.446-.35-2.939-2.306m7.372,9.871-2.461,2.234q-.077-.878-.156-1.757-.129-1.46-.259-2.918-.09-1.014-.179-2.028l3.014,2.367,1.263.991-1.223,1.111m18.824-19.408q-.9,1.877-1.8,3.754-.987,2.056-1.974,4.112l-1.993,4.149-1.865,3.884-1.57,3.271q-.567,1.181-1.133,2.361c-.054.109-.106.218-.16.328l-1.3-1.023-2.336-1.833-1.67-1.311a.8.8,0,0,0-.1-.08l-1.076-.845-3.122-2.449-1.4-1.1,1.709-1.213,2.837-2.013,3.458-2.455,3.788-2.689,3.824-2.714,3.576-2.539,3.021-2.144.783-.556-.009.018-1.483,3.089" transform="translate(-1149.967 -488.457)" fill="#12032c"/>
        <path id="Trazado_40956" data-name="Trazado 40956" d="M1209.331,559.656l2.977-1.87c.485-.305.974-.6,1.456-.914l.02-.014a.8.8,0,1,0-.806-1.378l-1.193.749-2.864,1.8-3.464,2.175-2.978,1.87c-.486.3-.974.6-1.456.914L1201,563a.8.8,0,1,0,.806,1.379l1.192-.749,2.864-1.8,3.464-2.175" transform="translate(-1149.794 -488.993)" fill="#12032c"/>
        <path id="Trazado_40957" data-name="Trazado 40957" d="M1213.288,562.472c.339-.213.682-.422,1.019-.639l.014-.01a.8.8,0,0,0-.806-1.378l-.835.524-2,1.254-2.424,1.522-2.088,1.311c-.34.213-.682.422-1.019.639l-.013.009a.8.8,0,1,0,.806,1.378l.835-.525,2-1.253,2.424-1.523,2.088-1.311" transform="translate(-1149.901 -489.12)" fill="#12032c"/>
        <path id="Trazado_40958" data-name="Trazado 40958" d="M1214.06,565.416l-1.494.937-2.383,1.5-.55.345a.8.8,0,0,0,.806,1.379l1.494-.938,2.381-1.5c.183-.115.369-.23.551-.346a.8.8,0,0,0-.806-1.378" transform="translate(-1150.017 -489.248)" fill="#12032c"/>
        <path id="Trazado_40959" data-name="Trazado 40959" d="M1207.855,487.642a.828.828,0,0,0-.1-.122.84.84,0,0,0-.518-.272.652.652,0,0,0-.414.069l-.824.269-2.579.844-3.826,1.251-4.653,1.521-5.095,1.666-5.141,1.681-4.8,1.568-4.052,1.325-2.923.956c-.459.15-.92.3-1.379.45l-.059.02-.028.011a.744.744,0,0,0-.324.195.79.79,0,0,0-.095.128.735.735,0,0,0-.132.561.611.611,0,0,0,.227.44l.58.455,1.579,1.239,2.335,1.833,2.85,2.237,1.542,1.21q.071.808.143,1.618.131,1.46.26,2.92t.261,2.947q.087.975.173,1.952c.008.093.016.186.024.279a.8.8,0,0,0,1.362.564q.944-.856,1.889-1.715l2.988-2.711.165-.151.4.317,2.484,1.95,1.786,1.4.848.666.037.028a.829.829,0,0,0,.67.219.753.753,0,0,0,.584-.381l.368-.769,1-2.081q.742-1.545,1.482-3.088l1.8-3.754q.987-2.056,1.974-4.111,1-2.075,1.992-4.151l1.865-3.885,1.57-3.27q.566-1.181,1.133-2.361c.178-.371.359-.741.535-1.114l.023-.048.008-.019a.729.729,0,0,0,.073-.172.816.816,0,0,0-.081-.615m-30.424,15.476-2.484-1.949-1.576-1.236,2.083-.681,3.827-1.251,4.652-1.521,5.094-1.666,5.142-1.681,4.794-1.568,3.465-1.133-2.086,1.481-2.33,1.653-2.468,1.752-2.533,1.8q-1.259.891-2.515,1.785l-2.423,1.72-2.226,1.579-1.955,1.388-1.6,1.137-1.166.828-.312.221-.445-.35-2.938-2.306m7.37,9.871-2.461,2.234q-.077-.878-.156-1.757-.128-1.46-.258-2.918-.089-1.014-.179-2.028l3.014,2.367,1.264.991-1.224,1.111m18.824-19.408-1.8,3.754q-.986,2.056-1.974,4.111l-1.992,4.15q-.932,1.942-1.866,3.884l-1.57,3.271q-.566,1.181-1.132,2.361l-.16.328-1.3-1.023-2.335-1.833-1.67-1.311a.781.781,0,0,0-.1-.08l-1.077-.846-3.121-2.449-1.4-1.1,1.709-1.213,2.837-2.013,3.459-2.455,3.788-2.689,3.824-2.714,3.577-2.539,3.021-2.144.783-.556-.009.018q-.74,1.545-1.482,3.089" transform="translate(-1149.03 -487.24)" fill="#12032c"/>
        <path id="Trazado_40960" data-name="Trazado 40960" d="M1172.932,512.383l2.977-1.87c.485-.3.974-.605,1.457-.915l.02-.013a.8.8,0,1,0-.806-1.378l-1.192.749-2.865,1.8-3.464,2.174-2.977,1.87c-.486.3-.974.6-1.457.914l-.02.013a.8.8,0,0,0,.806,1.379l1.193-.749,2.864-1.8,3.464-2.175" transform="translate(-1148.858 -487.776)" fill="#12032c"/>
        <path id="Trazado_40961" data-name="Trazado 40961" d="M1176.889,515.2c.339-.213.682-.422,1.019-.639l.014-.01a.8.8,0,1,0-.806-1.378l-.835.524-2,1.254-2.425,1.522-2.088,1.311c-.34.213-.682.422-1.019.639l-.014.009a.8.8,0,1,0,.806,1.379l.835-.525,2-1.253,2.424-1.523,2.088-1.311" transform="translate(-1148.965 -487.903)" fill="#12032c"/>
        <path id="Trazado_40962" data-name="Trazado 40962" d="M1177.659,518.143l-1.493.937-2.382,1.5-.55.345a.8.8,0,0,0,.805,1.379l1.493-.938,2.382-1.5.55-.346a.8.8,0,1,0-.806-1.378" transform="translate(-1149.08 -488.032)" fill="#12032c"/>
      </g>
    </g>
  </g>
</svg>
