<svg xmlns="http://www.w3.org/2000/svg" width="134" height="117" viewBox="0 0 134 117">
  <g id="MKTDigital" transform="translate(-534 -197)">
    <path id="Trazado_41045" data-name="Trazado 41045" d="M0,0H134V117H0Z" transform="translate(534 197)" fill="#fff"/>
    <g id="Grupo_21245" data-name="Grupo 21245" transform="translate(5712.244 23329.41)">
      <path id="Trazado_40980" data-name="Trazado 40980" d="M672.218,1114.969H599.666a4.944,4.944,0,0,1-4.939-4.939v-41.1a4.945,4.945,0,0,1,4.939-4.939h8.2a1.165,1.165,0,0,1,0,2.33h-8.2a2.612,2.612,0,0,0-2.609,2.609v41.1a2.612,2.612,0,0,0,2.609,2.609h72.552a2.612,2.612,0,0,0,2.609-2.609v-41.1a2.612,2.612,0,0,0-2.609-2.609h-8.2a1.165,1.165,0,1,1,0-2.33h8.2a4.944,4.944,0,0,1,4.939,4.939v41.1a4.944,4.944,0,0,1-4.939,4.939" transform="translate(-5746.971 -24161.104)" fill="#12032c"/>
      <path id="Trazado_40981" data-name="Trazado 40981" d="M644.177,1125.372H631.1a1.165,1.165,0,0,1-1.165-1.165v-7.94a1.165,1.165,0,0,1,1.165-1.165h13.075a1.164,1.164,0,0,1,1.164,1.165v7.94a1.164,1.164,0,0,1-1.164,1.165m-11.91-2.33h10.745v-5.61H632.267Z" transform="translate(-5748.667 -24163.564)" fill="#12032c"/>
      <path id="Trazado_40982" data-name="Trazado 40982" d="M649.048,1125.774H625.71a1.165,1.165,0,0,1,0-2.33h23.338a1.165,1.165,0,1,1,0,2.33" transform="translate(-5748.408 -24163.967)" fill="#12032c"/>
      <path id="Trazado_40983" data-name="Trazado 40983" d="M636.663,1103.97a26.976,26.976,0,1,1,26.976-26.976,27.007,27.007,0,0,1-26.976,26.976m0-51.623a24.647,24.647,0,1,0,24.646,24.647,24.675,24.675,0,0,0-24.646-24.647" transform="translate(-5747.692 -24160.428)" fill="#12032c"/>
      <path id="Trazado_40984" data-name="Trazado 40984" d="M637.453,1103.97c-6.383,0-11.383-11.849-11.383-26.976s5-26.977,11.383-26.977,11.382,11.85,11.382,26.977-5,26.976-11.382,26.976m0-51.623c-5.335,0-9.052,12.99-9.052,24.647s3.718,24.646,9.052,24.646,9.052-12.988,9.052-24.646-3.718-24.647-9.052-24.647" transform="translate(-5748.481 -24160.428)" fill="#12032c"/>
      <path id="Trazado_40985" data-name="Trazado 40985" d="M657.145,1096.219a1.165,1.165,0,0,1-1.158-1.041c-.762-.961-7.147-2.767-19.04-2.767s-18.278,1.805-19.04,2.767a1.165,1.165,0,0,1-2.323-.124c0-4.833,19.177-4.973,21.363-4.973s21.363.14,21.363,4.973a1.165,1.165,0,0,1-1.165,1.165" transform="translate(-5747.976 -24162.359)" fill="#12032c"/>
      <path id="Trazado_40986" data-name="Trazado 40986" d="M636.947,1066.608c-2.186,0-21.363-.14-21.363-4.973a1.165,1.165,0,0,1,2.323-.124c.761.961,7.147,2.767,19.04,2.767s18.278-1.806,19.04-2.767a1.165,1.165,0,0,1,2.323.124c0,4.833-19.177,4.973-21.363,4.973" transform="translate(-5747.976 -24160.932)" fill="#12032c"/>
      <path id="Trazado_40987" data-name="Trazado 40987" d="M662.474,1079.466H610.851a1.165,1.165,0,0,1,0-2.33h51.623a1.165,1.165,0,0,1,0,2.33" transform="translate(-5747.692 -24161.734)" fill="#12032c"/>
    </g>
  </g>
</svg>
