<svg xmlns="http://www.w3.org/2000/svg" width="134" height="117" viewBox="0 0 134 117">
  <g id="OctoBot" transform="translate(-380 -197)">
    <rect id="Rectángulo_3304" data-name="Rectángulo 3304" width="134" height="117" transform="translate(380 197)" fill="#fff"/>
    <g id="Grupo_21246" data-name="Grupo 21246" transform="translate(5351.627 23330.934)">
      <path id="Trazado_40963" data-name="Trazado 40963" d="M907.547,1081.879h-1.758a17.621,17.621,0,0,0-17.514-16.507H876.02v-5.932a3.86,3.86,0,1,0-1.4,0v5.932H858.649a17.622,17.622,0,0,0-17.514,16.507h-1.649a5.339,5.339,0,0,0-5.308,5.359v10a5.34,5.34,0,0,0,5.308,5.359h1.7a17.727,17.727,0,0,0,17.468,15.971H888.28a17.726,17.726,0,0,0,17.468-15.971h1.8a5.34,5.34,0,0,0,5.308-5.359v-10a5.339,5.339,0,0,0-5.308-5.359m-35.166-26.27a2.941,2.941,0,1,1,2.94,2.973,2.959,2.959,0,0,1-2.94-2.973M841.093,1101.2h-1.607a3.944,3.944,0,0,1-3.919-3.961v-10a3.945,3.945,0,0,1,3.919-3.961h1.6v17.552c0,.124,0,.247.006.369Zm63.336.29-.012.317h0c-.009.153-.016.308-.029.461a16.341,16.341,0,0,1-16.108,14.9H858.651a16.341,16.341,0,0,1-16.108-14.9q-.033-.385-.049-.775v-.009c-.009-.218-.017-.436-.017-.656v-17.549h0l0-.3c0-.26.01-.518.023-.775v-.017a16.241,16.241,0,0,1,16.144-15.413h29.625a16.242,16.242,0,0,1,16.146,15.43l.016.287h0c0,.063,0,.125.005.188l0,18.151c0,.222-.008.443-.017.662m7.036-4.25a3.944,3.944,0,0,1-3.918,3.961h-1.708c0-.122.007-.246.007-.369v-17.552h1.7a3.944,3.944,0,0,1,3.918,3.961Z" transform="translate(-5777.804 -24160.646)" fill="#12032c"/>
      <path id="Trazado_40964" data-name="Trazado 40964" d="M889.921,1080.907H861.035a11.345,11.345,0,0,0,0,22.689h28.886a11.345,11.345,0,0,0,0-22.689m0,21.292H861.035a9.947,9.947,0,0,1,0-19.893h28.886a9.947,9.947,0,0,1,0,19.893" transform="translate(-5779.816 -24164.406)" fill="#12032c"/>
      <path id="Trazado_40965" data-name="Trazado 40965" d="M891.553,1087.167a5.892,5.892,0,1,0,5.836,5.891,5.87,5.87,0,0,0-5.836-5.891m0,10.384a4.494,4.494,0,1,1,4.446-4.494,4.475,4.475,0,0,1-4.446,4.494" transform="translate(-5784.441 -24165.213)" fill="#12032c"/>
      <path id="Trazado_40966" data-name="Trazado 40966" d="M865.567,1087.167a5.892,5.892,0,1,0,5.836,5.891,5.87,5.87,0,0,0-5.836-5.891m0,10.384a4.494,4.494,0,1,1,4.446-4.494,4.475,4.475,0,0,1-4.446,4.494" transform="translate(-5781.095 -24165.213)" fill="#12032c"/>
    </g>
  </g>
</svg>
