<svg xmlns="http://www.w3.org/2000/svg" width="134" height="117" viewBox="0 0 134 117">
  <g id="smartRoute" transform="translate(-229 -60)">
    <rect id="Rectángulo_3299" data-name="Rectángulo 3299" width="134" height="117" transform="translate(229 60)" fill="#fff"/>
    <g id="Grupo_21252" data-name="Grupo 21252" transform="translate(5587.024 23848.963)">
      <path id="Trazado_40988" data-name="Trazado 40988" d="M444.633,350.667c3.68-.607,8.478-1.1,11.991.436,1.686.736,3.146,2.094,2.951,4.092-.2,2.053-2.085,3.221-3.871,3.821a1.035,1.035,0,0,0-.738.969v.068a1.018,1.018,0,0,0,.738.968c2,.463,4.178,1.544,4.763,3.693a4.912,4.912,0,0,1-2.833,5.548c-3.852,1.933-9.126,1.468-13.268,1.014l1,1V349.7a1,1,0,0,0-2.01,0v22.582a1.032,1.032,0,0,0,1,1,40.173,40.173,0,0,0,9.81,0c2.365-.327,4.846-1.029,6.539-2.815a6.587,6.587,0,0,0,1.345-7.21,8.207,8.207,0,0,0-5.821-4.174l.737.969v-.068l-.737.968c2.145-.721,4.234-2.009,5.046-4.236a5.625,5.625,0,0,0-1.7-6.146c-4-3.351-10.731-2.626-15.482-1.842-1.272.21-.733,2.147.534,1.937" transform="translate(-5719.523 -24061.568)" fill="#12032c"/>
      <path id="Trazado_40989" data-name="Trazado 40989" d="M455.97,358.876H444.365a1,1,0,0,0,0,2.009H455.97a1,1,0,0,0,0-2.009" transform="translate(-5719.523 -24061.398)" fill="#12032c"/>
      <path id="Trazado_40990" data-name="Trazado 40990" d="M430.308,329.447h-7.455a1,1,0,0,0,0,2.009h7.455a1,1,0,0,0,0-2.009" transform="translate(-5719.866 -24061.869)" fill="#12032c"/>
      <path id="Trazado_40991" data-name="Trazado 40991" d="M449.729,329.447h-9.791a1,1,0,0,0,0,2.009h9.791a1,1,0,0,0,0-2.009" transform="translate(-5719.593 -24061.869)" fill="#12032c"/>
      <path id="Trazado_40992" data-name="Trazado 40992" d="M465.286,321.435a17.023,17.023,0,0,1-7.413,6.717c-1.167.556-.149,2.289,1.014,1.735a18.889,18.889,0,0,0,8.135-7.439,1,1,0,0,0-1.735-1.014" transform="translate(-5719.3 -24062.004)" fill="#12032c"/>
      <path id="Trazado_40993" data-name="Trazado 40993" d="M464.454,304.3a16.662,16.662,0,0,1,2.9,9.281,1,1,0,0,0,2.009,0,18.585,18.585,0,0,0-3.173-10.3c-.713-1.072-2.455-.067-1.735,1.014" transform="translate(-5719.189 -24062.291)" fill="#12032c"/>
      <path id="Trazado_40994" data-name="Trazado 40994" d="M447.166,297.417c3.605,0,7.035-.1,10.474,1.249,1.2.471,1.726-1.47.534-1.937-3.6-1.407-7.229-1.321-11.009-1.321a1,1,0,0,0,0,2.009" transform="translate(-5719.478 -24062.408)" fill="#12032c"/>
      <path id="Trazado_40995" data-name="Trazado 40995" d="M428.446,297.418h8.448a1,1,0,0,0,0-2.01h-8.448a1,1,0,0,0,0,2.01" transform="translate(-5719.776 -24062.408)" fill="#12032c"/>
      <path id="Trazado_40996" data-name="Trazado 40996" d="M428.8,365.495h7.455a1,1,0,0,0,0-2.01H428.8a1,1,0,0,0,0,2.01" transform="translate(-5719.771 -24061.326)" fill="#12032c"/>
      <path id="Trazado_40997" data-name="Trazado 40997" d="M409.417,365.495h9.79a1,1,0,0,0,0-2.01h-9.79a1,1,0,0,0,0,2.01" transform="translate(-5720.08 -24061.326)" fill="#12032c"/>
      <path id="Trazado_40998" data-name="Trazado 40998" d="M392.094,356.487a18.886,18.886,0,0,0,8.135,7.438c1.161.554,2.182-1.178,1.015-1.734a17,17,0,0,1-7.413-6.717,1.006,1.006,0,0,0-1.736,1.014" transform="translate(-5720.342 -24061.461)" fill="#12032c"/>
      <path id="Trazado_40999" data-name="Trazado 40999" d="M392.853,337.328a18.583,18.583,0,0,0-3.172,10.3,1,1,0,0,0,2.009,0,16.657,16.657,0,0,1,2.9-9.281c.718-1.079-1.021-2.087-1.736-1.014" transform="translate(-5720.378 -24061.75)" fill="#12032c"/>
      <path id="Trazado_41000" data-name="Trazado 41000" d="M411.994,329.447c-3.779,0-7.411-.087-11.009,1.321-1.191.466-.673,2.41.534,1.937,3.441-1.347,6.866-1.249,10.474-1.249a1,1,0,0,0,0-2.01" transform="translate(-5720.208 -24061.869)" fill="#12032c"/>
      <path id="Trazado_41001" data-name="Trazado 41001" d="M423.65,320.932H389.38l1,1v-22.4l-1,1h34.27l-1-1v22.4a1,1,0,0,0,2.01,0v-22.4a1.019,1.019,0,0,0-1-1H389.38a1.019,1.019,0,0,0-1,1v22.4a1.02,1.02,0,0,0,1,1h34.27a1,1,0,0,0,0-2.01" transform="translate(-5720.399 -24062.359)" fill="#12032c"/>
      <path id="Trazado_41002" data-name="Trazado 41002" d="M418.59,289.541H394.439a1.006,1.006,0,0,0-.867.5l-5.06,9.133a1.015,1.015,0,0,0,.868,1.512H423.65a1.014,1.014,0,0,0,.867-1.512l-5.059-9.133c-.627-1.132-2.363-.119-1.735,1.014q2.53,4.567,5.06,9.133.433-.756.868-1.512H389.379l.868,1.512q2.529-4.567,5.06-9.133-.434.248-.868.5H418.59a1,1,0,0,0,0-2.01" transform="translate(-5720.399 -24062.504)" fill="#12032c"/>
      <path id="Trazado_41003" data-name="Trazado 41003" d="M408.279,289.541h-3.922a1.025,1.025,0,0,0-.968.738q-1.327,4.567-2.653,9.133a1.014,1.014,0,0,0,.968,1.272h9.227a1.014,1.014,0,0,0,.968-1.272q-1.326-4.567-2.653-9.133a1,1,0,0,0-1.936.534l2.652,9.133.969-1.272H401.7l.969,1.272q1.326-4.567,2.653-9.133l-.969.738h3.922a1,1,0,0,0,0-2.01" transform="translate(-5720.203 -24062.504)" fill="#12032c"/>
      <path id="Trazado_41004" data-name="Trazado 41004" d="M410.931,304.622H401.7l1,1v-5.973l-1,1h9.227l-1-1v5.973a1,1,0,0,0,2.01,0v-5.973a1.019,1.019,0,0,0-1-1H401.7a1.019,1.019,0,0,0-1,1v5.973a1.02,1.02,0,0,0,1,1h9.227a1,1,0,0,0,0-2.01" transform="translate(-5720.203 -24062.357)" fill="#12032c"/>
    </g>
  </g>
</svg>
