<svg xmlns="http://www.w3.org/2000/svg" width="134" height="117" viewBox="0 0 134 117">
  <g id="sms-masivo" transform="translate(-75 -197)">
    <rect id="Rectángulo_3304" data-name="Rectángulo 3304" width="134" height="117" transform="translate(75 197)" fill="#fff"/>
    <g id="Grupo_21248" data-name="Grupo 21248" transform="translate(4769.638 23606.143)">
      <path id="Trazado_40924" data-name="Trazado 40924" d="M1162.11,806.926c.141.228.068.082,0,0" transform="translate(-5819.378 -24123.373)" fill="#12032c"/>
      <path id="Trazado_40925" data-name="Trazado 40925" d="M1168.273,810.444a.183.183,0,0,0-.028-.013l-.01,0,.038.008" transform="translate(-5819.715 -24123.568)" fill="#12032c"/>
      <path id="Trazado_40926" data-name="Trazado 40926" d="M1168.136,810.394h.007c-.056-.071-.1-.144-.007,0" transform="translate(-5819.707 -24123.561)" fill="#12032c"/>
      <path id="Trazado_40927" data-name="Trazado 40927" d="M1207.791,803.108l.009-.012c.017-.026.03-.053.045-.08a.582.582,0,0,0-.083.121l.023-.023.005-.006" transform="translate(-5821.89 -24123.16)" fill="#12032c"/>
      <path id="Trazado_40928" data-name="Trazado 40928" d="M1168.072,810.416h.019l-.019,0" transform="translate(-5819.707 -24123.564)" fill="#12032c"/>
      <path id="Trazado_40929" data-name="Trazado 40929" d="M1168.142,810.4v0h0l0,0" transform="translate(-5819.71 -24123.566)" fill="#12032c"/>
      <path id="Trazado_40930" data-name="Trazado 40930" d="M1157.144,767.357l-.1.021c0,.006.042,0,.171-.031h-.021l-.05.01" transform="translate(-5819.1 -24121.197)" fill="#12032c"/>
      <path id="Trazado_40931" data-name="Trazado 40931" d="M1207.764,795.149V793.08a1.367,1.367,0,0,0-2.735,0v7.2c0,.026-.006.09-.01.149s-.032.159-.042.189-.019.061-.028.091c-.034.062-.069.124-.1.186.017-.012-.008.044-.055.092-.023.032-.05.064-.069.1.015-.027.028-.05.041-.07l-.186.183-.028.018c-.046.029-.107.072-.169.109l-.026.008-.132.043c-.144.042-.5.055-.05.034-.1,0-.195.015-.293.016-.073,0-.147,0-.221,0h-28.97a4.267,4.267,0,0,0-2.442.614,9.442,9.442,0,0,0-1.97,2.169l-2.25,2.86c-.178.225-.352.454-.533.677a.812.812,0,0,1-.067.071c.051-.03.063,0-.01.041l-.035.019h.032l-.015,0h-.005l-.017,0a.5.5,0,0,1,.049.017.08.08,0,0,0,.029-.02c.071.012.063.042,0,.033.046.029.019.049-.049.009l-.01-.007.021-.01-.011,0-.045-.015,0,0,0,0,0,0,0,0v0h0l-.005-.007h-.006l0,.007h0l0-.007-.051,0,.006.006c-.022,0-.033,0-.026,0h0l.018,0h0l.025,0h.027v0h.008l-.006,0h0l-.009,0,0,0h0l0-.005,0,0h0c-.424-.633-.889-1.243-1.332-1.862l-1.9-2.662a4.39,4.39,0,0,0-1.521-1.455,4.63,4.63,0,0,0-2.188-.466c-1.059,0-2.12,0-3.179,0h-.133c-.028,0-.056,0-.084-.006-.1-.025-.191-.051-.286-.078-.026-.012-.052-.025-.077-.038-.061-.034-.121-.073-.18-.111-.029-.027-.06-.052-.088-.078s-.061-.061-.09-.094l.037.064c-.016-.028-.035-.054-.053-.081a.313.313,0,0,1-.066-.1c-.023-.033-.046-.066-.065-.1s-.041-.081-.063-.122l0-.009c-.008-.034-.016-.069-.023-.1a.5.5,0,0,1-.028-.143c0-.028-.01-.054-.017-.08.007.022.011.043.016.062,0-.053,0-.1,0-.158,0-.29,0-.58,0-.87V768.916c0-.22-.006-.44,0-.661,0-.019,0-.042,0-.064.021-.09.043-.178.07-.266l-.039.067c.021-.035.036-.079.055-.115a.218.218,0,0,1,.05-.088c.033-.055.065-.109.1-.162.026-.028.051-.059.078-.085s.091-.083.14-.127l.115-.078c.04-.023.079-.044.12-.065.025-.013.052-.026.078-.038s.052-.012.076-.017a.3.3,0,0,1,.123-.029h.028c.029-.005.06-.01.088-.018l-.067.017c.048,0,.1,0,.145,0h13.892a1.368,1.368,0,0,0,0-2.736h-13.815a4.19,4.19,0,0,0-1.929.464,3.906,3.906,0,0,0-2.017,3.06,7.453,7.453,0,0,0-.026.9v28.757c0,.88-.009,1.76,0,2.639a3.935,3.935,0,0,0,3.891,3.895c1.031.013,2.062,0,3.093,0,.154,0,.307,0,.461,0h.024c.046,0,.093,0,.139,0,.087.019.174.038.261.065.017.005.044.018.073.029l.055.03c.118.065.361.289.073.02.094.088.195.167.282.263l.014.016-.031-.05.014.02c.063.094.132.185.2.277l2,2.8q.467.656.936,1.313a5.146,5.146,0,0,0,.787.982,2.776,2.776,0,0,0,1.951.688,2.746,2.746,0,0,0,1.9-.874c.161-.185.3-.385.455-.576l2.232-2.838a17.583,17.583,0,0,1,1.589-1.945l.107-.068c.043-.025.088-.047.132-.07.086-.026.171-.055.26-.074.059,0,.161-.013.188-.013h29.421a3.945,3.945,0,0,0,3.543-2.043,6.6,6.6,0,0,0,.464-3.2Zm-51.021-27.91-.14.06a.391.391,0,0,1,.14-.06m-.746.87a.267.267,0,0,1,.012-.068s-.006.03-.012.068m.063,32.6.049.1a.285.285,0,0,1-.049-.1m11.278,7.182v0h0v0h0m-.04.056h0l0,0,0,0m.083.01h0l.012.019-.013-.02m36.943-6.606a.417.417,0,0,1-.106.04l.106-.04m.325-.2.04-.034a.2.2,0,0,1-.04.034" transform="translate(-5818.891 -24121.037)" fill="#12032c"/>
      <path id="Trazado_40932" data-name="Trazado 40932" d="M1156.243,768.072l-.005.013c0,.012-.006.024-.01.035.057-.1.071-.137.065-.137-.016.027-.032.053-.046.08l0,.008" transform="translate(-5819.055 -24121.232)" fill="#12032c"/>
      <path id="Trazado_40933" data-name="Trazado 40933" d="M1156.168,802.577c0,.022.01.052.017.085s.01-.011-.028-.162v.018c0,.02.006.04.011.059" transform="translate(-5819.051 -24123.131)" fill="#12032c"/>
      <path id="Trazado_40934" data-name="Trazado 40934" d="M1168.145,810.41h0" transform="translate(-5819.71 -24123.566)" fill="#12032c"/>
      <path id="Trazado_40935" data-name="Trazado 40935" d="M1168.151,810.4l0,0h0l.008.006h0l0,0,0,0,0,0,.005,0,.012,0h-.005l0,0h0l.006,0h-.016c.02-.021.04-.041.062-.06a.289.289,0,0,0-.069.06h-.006l-.021,0,0,.007h0" transform="translate(-5819.71 -24123.563)" fill="#12032c"/>
      <path id="Trazado_40936" data-name="Trazado 40936" d="M1156.428,803.139l0,0c-.057-.1-.08-.126-.082-.121.023.035.044.07.067.1l.011.013" transform="translate(-5819.062 -24123.16)" fill="#12032c"/>
      <path id="Trazado_40937" data-name="Trazado 40937" d="M1219.415,795.176l.059.067.02.01.009,0a.27.27,0,0,0-.088-.074" transform="translate(-5822.531 -24122.729)" fill="#12032c"/>
      <path id="Trazado_40938" data-name="Trazado 40938" d="M1229.984,750.307a4.042,4.042,0,0,0-2.692-1.022H1181.9c-.422,0-.843,0-1.263,0a3.914,3.914,0,0,0-3.451,2.073,4.4,4.4,0,0,0-.449,1.991v31.477a6.119,6.119,0,0,0,.05.832,3.9,3.9,0,0,0,3.679,3.333,1.357,1.357,0,0,0,.154.009h27.352c.708,0,1.417,0,2.125,0,.019,0,.039,0,.058,0h.009c.05,0,.1,0,.15,0l.035.007a2.438,2.438,0,0,1,.263.074h0c.086.048.17.1.255.148l.039.034a3.006,3.006,0,0,1,.3.333c.408.515.813,1.033,1.219,1.55l1.818,2.311a8.773,8.773,0,0,0,1.053,1.285,2.828,2.828,0,0,0,3.126.4,3.106,3.106,0,0,0,1.14-1.082l1.341-1.882,1.615-2.264c.1-.145.21-.288.312-.435l-.041.042c.018-.018.035-.039.052-.058s.036-.049.053-.074c.026-.041.053-.052.026-.013.017-.019.034-.039.051-.057s.041-.04.073-.067.137-.1.168-.115.068-.035.11-.056.1-.038.126-.043c.047-.013.094-.026.143-.036s.155-.011.194-.011.068,0,.1,0h1.888a9.421,9.421,0,0,0,2.685-.159,3.942,3.942,0,0,0,2.784-3.731c0-.16,0-.318,0-.477V755.259c0-.673,0-1.346,0-2.02a3.917,3.917,0,0,0-1.261-2.932m-1.651,2.225s-.026-.036-.053-.076a.209.209,0,0,1,.053.076m-.26-.283L1228,752.2a.212.212,0,0,1,.076.053m-48.215.041a.262.262,0,0,1-.044.037.221.221,0,0,1,.044-.037m-.079.072a.565.565,0,0,1-.051.058.307.307,0,0,1,.051-.058m-.219.337a.2.2,0,0,1,.029-.067c.007-.008-.008.025-.029.067m.347,33.336.076.053a.206.206,0,0,1-.076-.053m-.447-.852,0,.047a.11.11,0,0,1,0-.047m37.772,7.567s-.009,0-.02,0l.013,0,.007,0m-.17.024.039,0a.1.1,0,0,1-.059.019c-.008,0,0-.008.02-.015m.111-.014.008,0,.025.035a.134.134,0,0,0-.033-.033m10.261-6.5h-.12c-.817,0-1.635,0-2.453,0a5.424,5.424,0,0,0-3.159.6,6.969,6.969,0,0,0-1.739,1.949q-.828,1.159-1.655,2.32c-.364.509-.734,1.015-1.092,1.53.011-.015.018-.022.017-.013s-.023.034-.047.056l.015-.021-.016.023-.012.011-.018,0,0,0h-.021l-.005,0-.007-.008-.038-.02c-.067-.035-.061-.065-.022-.047-.016-.019-.033-.037-.049-.056-.03-.036-.058-.074-.088-.111l-3.124-3.972a7.672,7.672,0,0,0-1.421-1.541,3.945,3.945,0,0,0-2.371-.705H1180.62c-.058,0-.114,0-.171-.008l-.032-.007c-.079-.018-.158-.041-.236-.066l-.011,0-.009,0c-.071-.037-.14-.077-.207-.119l-.076-.052c-.028-.029-.053-.059-.069-.075s-.073-.082-.109-.123l-.034-.05c-.039-.062-.072-.127-.107-.191-.026-.08-.051-.161-.07-.244l-.008-.028c0-.058-.007-.116-.007-.175v-.007c0-.157,0-.314,0-.471V753.295c0-.041,0-.082,0-.124s0-.106.006-.159c.021-.083.039-.166.065-.248l.006-.02c.026-.052.051-.1.08-.154.014-.025.032-.059.051-.093.037-.033.071-.08.1-.114s.1-.088.144-.133a2.264,2.264,0,0,1,.2-.12l.034-.018c.061-.019.122-.04.184-.057l.1-.022c.065,0,.141-.01.169-.01s.054,0,.08,0c.507,0,1.014,0,1.521,0H1225.9c.469,0,.94,0,1.411,0,.073,0,.145,0,.218.007l.036.008c.082.019.162.044.243.07s.148.079.219.125l.077.052c.026.027.049.056.068.074s.046.042.074.067.048.071.07.107c.039.062.072.127.107.19.025.081.051.161.07.243l.009.041c0,.058.007.118.007.178s0,.112,0,.167v31.384c0,.129,0,.256,0,.385,0,.052,0,.1-.006.157-.018.072-.033.144-.054.215-.008.027-.017.052-.027.079-.03.062-.062.135-.1.2l-.011.01c-.033.03-.06.069-.091.1-.053.056-.114.1-.167.158a2.328,2.328,0,0,1-.2.12c-.032.017-.065.032-.1.048l-.118.027a.984.984,0,0,1-.157.024l.174-.008c-.073,0-.144.013-.216.015m.462-.115a.272.272,0,0,1-.112.05.535.535,0,0,1,.112-.05m.226-.154c.029-.024.05-.044.045-.036a.224.224,0,0,1-.045.036m.08-.071c-.012.009.051-.061.1-.113a.453.453,0,0,1-.1.113" transform="translate(-5820.183 -24120.203)" fill="#12032c"/>
      <path id="Trazado_40939" data-name="Trazado 40939" d="M1225.515,791.824a.793.793,0,0,0,.09-.1c-.026.03-.053.058-.078.087l-.011.016" transform="translate(-5822.866 -24122.537)" fill="#12032c"/>
      <path id="Trazado_40940" data-name="Trazado 40940" d="M1219.573,795.191l-.016.023.016-.023" transform="translate(-5822.539 -24122.729)" fill="#12032c"/>
      <path id="Trazado_40941" data-name="Trazado 40941" d="M1230.428,788.411c-.086,0-.059.005,0,0" transform="translate(-5823.133 -24122.355)" fill="#12032c"/>
      <path id="Trazado_40942" data-name="Trazado 40942" d="M1162.472,747.539v6.924c0,1.221-.019,2.443,0,3.664v.054a1.368,1.368,0,0,0,2.735,0v-17.9c0-.788-.007-1.576,0-2.363,0-.035,0-.069,0-.1.015-.069.033-.138.055-.206s.067-.12.1-.178.085-.087.129-.127a1.891,1.891,0,0,1,.178-.1c.068-.022.138-.041.208-.056.185-.01.372,0,.558,0h2.367a4.073,4.073,0,0,0,1.712-.354,4.79,4.79,0,0,0,1.822-1.813l1.455-2.039c.275-.387.547-.776.826-1.161.182.21.342.449.506.658q.669.852,1.339,1.7l1.169,1.486c.079.1.158.2.238.3a3.4,3.4,0,0,0,1.721,1.1,6.79,6.79,0,0,0,1.794.124h22.658c.476,0,.953,0,1.43,0,.044,0,.087,0,.13,0,.069.015.137.034.205.056a1.86,1.86,0,0,1,.177.1c.044.04.087.084.128.128a1.738,1.738,0,0,1,.1.177,2.149,2.149,0,0,1,.057.213c.01.211,0,.424,0,.635v6.047a1.367,1.367,0,1,0,2.735,0v-3.258c0-1.114.013-2.229,0-3.343a3.532,3.532,0,0,0-2.652-3.393,4.677,4.677,0,0,0-1.061-.1h-23.1c-.544,0-1.089,0-1.634,0-.05,0-.1,0-.15,0s-.127-.031-.191-.051-.118-.065-.176-.1a5.255,5.255,0,0,1-.518-.6l-.876-1.113-1.909-2.427a2.967,2.967,0,0,0-.867-.828,2.617,2.617,0,0,0-1.935-.258,2.646,2.646,0,0,0-1.49,1.091c-.461.634-.911,1.277-1.366,1.915-.482.675-.957,1.357-1.447,2.028a2.41,2.41,0,0,1-.189.195q-.086.055-.176.1c-.061.019-.124.036-.186.05-.351.023-.71,0-1.059,0h-1.695a4.309,4.309,0,0,0-2.043.422,3.528,3.528,0,0,0-1.828,2.951c-.018.305,0,.615,0,.921v8.837Z" transform="translate(-5819.398 -24119.084)" fill="#12032c"/>
      <path id="Trazado_40943" data-name="Trazado 40943" d="M1193.7,768.387a1.808,1.808,0,1,0,1.808,1.808,1.807,1.807,0,0,0-1.808-1.808" transform="translate(-5821.017 -24121.256)" fill="#12032c"/>
      <path id="Trazado_40944" data-name="Trazado 40944" d="M1205.436,768.387a1.808,1.808,0,1,0,1.808,1.808,1.808,1.808,0,0,0-1.808-1.808" transform="translate(-5821.663 -24121.256)" fill="#12032c"/>
      <path id="Trazado_40945" data-name="Trazado 40945" d="M1217.177,768.387a1.808,1.808,0,1,0,1.808,1.808,1.808,1.808,0,0,0-1.808-1.808" transform="translate(-5822.309 -24121.256)" fill="#12032c"/>
    </g>
  </g>
</svg>
