<svg xmlns="http://www.w3.org/2000/svg" xmlns:xlink="http://www.w3.org/1999/xlink" width="72" height="72" viewBox="0 0 72 72">
  <defs>
    <clipPath id="clip-path">
      <rect id="Rect치ngulo_3308" data-name="Rect치ngulo 3308" width="60.848" height="60.71" fill="none"/>
    </clipPath>
  </defs>
  <g id="cobranza" transform="translate(-437 -791)">
    <rect id="Rect치ngulo_3317" data-name="Rect치ngulo 3317" width="72" height="72" transform="translate(437 791)" fill="none"/>
    <g id="Grupo_21295" data-name="Grupo 21295" transform="translate(443 797)">
      <g id="Grupo_21267" data-name="Grupo 21267" transform="translate(0 0)" clip-path="url(#clip-path)">
        <path id="Trazado_41058" data-name="Trazado 41058" d="M58.328,42.6A4.307,4.307,0,0,0,55,42.482c-3.706.888-7.394,2.359-11.13,3.2a5.343,5.343,0,0,0-4.08-3.106c-2.642-.229-5.621.218-8.276.01-2.18-.172-4.355-2.308-6.294-3.327-4.3-2.258-9.522-.912-14.209-1.307a2.976,2.976,0,0,0-2.527-2.011,44.279,44.279,0,0,0-6.632.01A2.274,2.274,0,0,0,.144,38.033c.361,5.294-.46,11.183,0,16.407a2.175,2.175,0,0,0,1.847,2.083,42.693,42.693,0,0,0,6.492.013,3.271,3.271,0,0,0,2.6-2.039l2.657.037c7.991,4.278,13.551,9.874,23.225,5.954C44.331,57.5,51.573,53.2,58.916,50.058a4.259,4.259,0,0,0-.588-7.459m-.5,5.563c-6.971,3.13-13.727,6.85-20.735,9.888-4.567,1.98-8.367,2.314-12.92,0-1.725-.877-9.113-5.715-10.275-5.715H11.261v-8.2c0-.731-1.863-1.21-2.139.029L9.1,53.354c.094.251-.486,1.013-.612,1.013H2.318V38.107H8.484c.851.241.276,1.833,1.5,2.025,3.53.216,7.342-.261,10.837,0,4.168.314,6.594,4.326,10.559,4.618,2.628.194,5.707-.293,8.271-.006,2.893.325,3.092,4.99-.266,5.291l-11.63.023a1.092,1.092,0,0,0,.114,2.131l12.152-.027a4.912,4.912,0,0,0,3.515-2.583c.161-.33.433-1.634.618-1.717l12.316-3.515a2.133,2.133,0,0,1,1.364,3.813" transform="translate(0 -1.105)" fill="#fff"/>
        <path id="Trazado_41059" data-name="Trazado 41059" d="M28.129,32.988a4.361,4.361,0,0,0,4.246,3.885c7.857.542,16.336-.418,24.258-.009a4.381,4.381,0,0,0,4-4.126c-.4-7.528.518-15.58,0-23.046-.207-3.007-2.529-4.548-5.427-4.261.435-2.7-.937-5.554-3.99-5.422-1.507.065-3.6,1.594-3.6,3.186V5.43h-6.5V3.194C41.12,1.549,38.96.026,37.4,0c-3.027-.048-4.258,2.78-3.863,5.43-2.918-.287-5.217,1.239-5.426,4.261-.523,7.539.39,15.692.022,23.3M49.792,3.466a1.7,1.7,0,0,1,2.743-.884,3.152,3.152,0,0,1,.51.884V5.43H49.792c.073-.6-.1-1.4,0-1.964m-14.091,0a1.7,1.7,0,0,1,2.743-.884,3.171,3.171,0,0,1,.509.884V5.43H35.7c.073-.6-.1-1.4,0-1.964M30.28,15.186H54.467c.945,0,.945-2.168,0-2.168H30.28V9.292a5.276,5.276,0,0,1,.345-.739c.666-1.025,1.807-1.011,2.907-.955v2.507c0,.915,2.168.915,2.168,0V7.6H47.624v2.507c0,.915,2.168.915,2.168,0V7.6h6.979a2.439,2.439,0,0,1,1.6,1.516c.218,7.81.024,15.663.1,23.49a2.167,2.167,0,0,1-2.1,2.1l-24.125,0a2.38,2.38,0,0,1-1.964-1.694Z" transform="translate(-0.862 0)" fill="#fff"/>
        <path id="Trazado_41060" data-name="Trazado 41060" d="M5.406,40.724a1.1,1.1,0,0,0,0,1.975,1.076,1.076,0,1,0,0-1.975" transform="translate(-0.148 -1.254)" fill="#fff"/>
        <path id="Trazado_41061" data-name="Trazado 41061" d="M40.867,30.157c.289,1.32,2.606.552,2.819.775.073.076-.162,1.522,1.037,1.586,1.228.067,1.041-1.489,1.262-1.658.135-.1.6-.11.851-.233a3.262,3.262,0,0,0-.814-6.164c-1.015-.146-3.573.416-2.953-1.533.551-1.732,5.956.644,5.628-1.945-.189-1.484-2.622-.658-2.843-.893-.073-.076.162-1.521-1.036-1.586-1.215-.067-.97,1.273-1.191,1.594-.041.06-1.052.366-1.34.556a3.239,3.239,0,0,0,1.232,5.9c1.015.146,3.573-.415,2.953,1.533-.551,1.733-6.2-.678-5.6,2.062" transform="translate(-1.26 -0.571)" fill="#fff"/>
      </g>
    </g>
  </g>
</svg>
