<svg xmlns="http://www.w3.org/2000/svg" xmlns:xlink="http://www.w3.org/1999/xlink" width="72" height="72" viewBox="0 0 72 72">
  <defs>
    <clipPath id="clip-path">
      <rect id="Rect치ngulo_3307" data-name="Rect치ngulo 3307" width="57.813" height="58.063" fill="none"/>
    </clipPath>
  </defs>
  <g id="contact-center" transform="translate(-120 -574)">
    <g id="Grupo_21300" data-name="Grupo 21300" transform="translate(-16 -217)">
      <rect id="Rect치ngulo_3316" data-name="Rect치ngulo 3316" width="72" height="72" transform="translate(136 791)" fill="none"/>
      <g id="Grupo_21293" data-name="Grupo 21293" transform="translate(143 798)">
        <g id="Grupo_21265" data-name="Grupo 21265" transform="translate(0 0)" clip-path="url(#clip-path)">
          <path id="Trazado_41057" data-name="Trazado 41057" d="M55.3,27.161c.369-7.734-.066-14.483-5.475-20.412C41.928-1.9,32.071.337,21.5.088A20.913,20.913,0,0,0,2.809,17.371c-.534,3.218-.188,6.534-.29,9.79-5.167,5.675-1.954,14.92,5.732,15.8a7.432,7.432,0,0,0,1.3,2.806,4.825,4.825,0,0,0,8.4-2.554L17.924,23.96a4.822,4.822,0,0,0-8.9-1.626l-.772,2.027a26.389,26.389,0,0,1,.589-7.687A15.189,15.189,0,0,1,21.87,5.814c8.417.529,17.415-2.184,23.78,4.856,3.5,3.877,4.246,8.591,3.917,13.692l-.6-1.7A4.816,4.816,0,0,0,39.855,24.3c.341,6.091-.436,12.644,0,18.68a4.81,4.81,0,0,0,8.408,2.8,7.788,7.788,0,0,0,1.3-2.8l2.241-.56v7.407c0,.049-.259.817-.311.934a2.865,2.865,0,0,1-2,1.607l-12.176.017a4.808,4.808,0,0,0-3.458-3.653c-1.634-.428-7.029-.369-8.857-.2-6.018.567-6.365,9.006.6,9.448,1.932.123,7.158.217,8.813-.407a5.153,5.153,0,0,0,2.911-3.337l12.52-.024a4.961,4.961,0,0,0,3.83-4.634c.2-2.6-.176-5.446.016-8.074a9.57,9.57,0,0,0,1.6-14.335m-45.047-2.85a2.962,2.962,0,0,1,2.914-2.492,2.892,2.892,0,0,1,2.931,2.85c.44,5.936-.332,12.421-.017,18.414a2.942,2.942,0,0,1-5.844-.482c-.438-5.9.33-12.338.016-18.291M47.582,42.6a2.942,2.942,0,0,1-5.844.482l-.016-18.663a2.95,2.95,0,0,1,5.844-.11c-.313,5.953.454,12.395.016,18.291M34.714,55.185a3.939,3.939,0,0,1-2.385.915,40.93,40.93,0,0,1-7.8-.158,2.773,2.773,0,0,1-.021-5.428,45.75,45.75,0,0,1,8.81,0,2.788,2.788,0,0,1,1.4,4.672M8.371,26.231v14.81c-8.659-1.182-8.606-13.5,0-14.81M35.945,3.946C25.829,4.233,15.488,1.719,9.116,11.6,6.44,15.75,6.179,20.01,6.365,24.847a6.3,6.3,0,0,0-1.975.885c-.257-5.757.019-10.874,3.383-15.721C14.841-.174,25.344,2.164,36.194,1.956a19.044,19.044,0,0,1,16.82,14.916c.612,2.935.374,5.882.412,8.86a6.28,6.28,0,0,0-1.975-.885,35.154,35.154,0,0,0-.522-8.13A17.071,17.071,0,0,0,35.945,3.946m13.5,37.095V26.231c8.6,1.3,8.666,13.645,0,14.81" transform="translate(0 0)" fill="#fdfdfd"/>
        </g>
      </g>
    </g>
  </g>
</svg>
