<svg xmlns="http://www.w3.org/2000/svg" xmlns:xlink="http://www.w3.org/1999/xlink" width="72" height="72" viewBox="0 0 72 72">
  <defs>
    <clipPath id="clip-path">
      <rect id="Rect치ngulo_3315" data-name="Rect치ngulo 3315" width="47.937" height="62.521" fill="none"/>
    </clipPath>
  </defs>
  <g id="customer-experience" transform="translate(-461 -791)">
    <g id="Grupo_21280" data-name="Grupo 21280" transform="translate(473 796)">
      <g id="Grupo_21279" data-name="Grupo 21279" transform="translate(0 0)" clip-path="url(#clip-path)">
        <path id="Trazado_41067" data-name="Trazado 41067" d="M41.418,35.467c-.374-5.059-5.154-11.922-10.9-9.658-2.4.943-3.284,2.3-6.318,2.779-4.565.716-5.859-.693-9.477-2.5C8.744,23.1,3.562,30.1,3.164,35.467c-.288,3.887.233,8.118,0,12.043a1.534,1.534,0,0,0,1.622,1.154l35.016,0A2.773,2.773,0,0,0,41.06,48.3a1.483,1.483,0,0,0,.36-.795c-.233-3.924.286-8.154,0-12.041M38.946,46.191H33.7V38.711a4.546,4.546,0,0,0-.467-.765c-.547-.465-2-.216-2,.458v7.555a1.5,1.5,0,0,1-.232.232H13.58a1.5,1.5,0,0,1-.232-.232V38.4c0-.674-1.454-.923-2-.458a4.562,4.562,0,0,0-.469.765v7.479H5.639V35.166c0-2.129,2.547-5.992,4.487-6.924,2.576-1.239,3.693.475,5.74,1.478a14.574,14.574,0,0,0,13.161-.156c1.84-.959,2.961-2.488,5.346-1.389,1.967.906,4.574,4.846,4.574,6.991Z" transform="translate(1.68 13.856)" fill="#fff"/>
        <path id="Trazado_41068" data-name="Trazado 41068" d="M17.635,13.456a10.278,10.278,0,0,0-8.6,8.981c-.858,9.763,11.435,15,17.725,7.394,5.888-7.118.036-17.407-9.128-16.375M19.6,30.99C9.777,31.6,8.727,17.039,17.945,15.924,28.6,14.635,29.506,30.376,19.6,30.99" transform="translate(4.914 7.312)" fill="#fff"/>
        <path id="Trazado_41069" data-name="Trazado 41069" d="M13.028,11.571c-.088,1.4-.379,2.907-.433,4.293-.043,1.1.3,1.992,1.586,1.746.929-.176,4.13-1.982,4.639-1.938,1.532.373,6.058,3.75,6.13.507.031-1.423-.413-3.148-.436-4.608l3.264-3.81a1.4,1.4,0,0,0-.107-1.641C27.016,5.47,23.4,5.2,22.383,4.7,21.245,3.689,19.677-1.8,17.692.6c-.629.761-1.975,3.745-2.536,4.095-1.154.571-4.334.687-5.219,1.37a1.422,1.422,0,0,0-.3,1.511Zm3.734-4.8c.526-.391,1.7-2.947,1.933-3,.213-.051.263.127.359.255.495.663,1.137,2.31,1.724,2.748.643.478,3.539.8,3.7,1.008.119.155-2.268,2.3-2.435,3.037-.145.651.4,3.461.277,3.59-1.157-.136-2.466-1.283-3.625-1.248-1.055.034-2.335,1.12-3.238,1.251-.266.039-.241,0-.237-.237.012-.833.309-1.942.326-2.773.029-1.389-1.761-2.516-2.479-3.621.158-.2,3.055-.53,3.7-1.008" transform="translate(5.203 0)" fill="#fff"/>
        <path id="Trazado_41070" data-name="Trazado 41070" d="M33.739,15.748c.312-1.2,4.722-3.816,1.808-4.968-1.116-.441-2.643-.52-3.816-.886-.776-1.034-2.163-5.2-3.894-3.592-.679.632-1.707,3.229-2.2,3.581a36.615,36.615,0,0,1-3.569.826c-3.34,1.045,1.3,3.816,1.577,5.035s-.563,3.476-.158,4.477c.772,1.913,4.071-.81,5.228-.846.7-.023,2.765,1.358,3.685,1.492,2.827.417.966-3.686,1.339-5.118m-2.473-.929a11.764,11.764,0,0,0,.119,2.974,16.878,16.878,0,0,0-2.7-1.058c-.464,0-2.6,1.169-2.7,1.058a19.186,19.186,0,0,0,.281-2.658c-.127-.8-1.464-1.651-1.825-2.428,2.273-.283,3.349-.894,4.166-3.086.676.546.983,1.922,1.7,2.386.469.3,2.5.552,2.616.7s-1.562,1.761-1.662,2.112" transform="translate(11.398 3.242)" fill="#fff"/>
        <path id="Trazado_41071" data-name="Trazado 41071" d="M11.441,20.8c2.542.5,1.477-2.46,1.432-3.9a4.181,4.181,0,0,1,.066-1.319c.314-1.017,4.509-3.744,1.893-4.8-.9-.365-3.391-.6-3.926-.94-.365-.235-1.568-2.964-2.134-3.493A1.563,1.563,0,0,0,7.4,6.039c-.751.145-2.1,3.077-2.584,3.818-1.212.379-2.786.462-3.945.912C-1.8,11.811,2.5,14.644,2.813,15.707c.414,1.415-1.58,5.693,1.463,5.1.827-.162,2.986-1.494,3.583-1.494.566,0,2.74,1.328,3.583,1.494M5.161,17.755a11.693,11.693,0,0,0,.119-2.974c-.1-.349-1.774-1.972-1.662-2.114.761-.306,1.947-.258,2.616-.7.721-.475,1.019-1.829,1.7-2.384.815,2.193,1.891,2.8,4.164,3.085-.36.778-1.7,1.625-1.823,2.428a19.435,19.435,0,0,0,.28,2.66c-.091.111-2.188-1.059-2.7-1.059s-2.61,1.175-2.7,1.059" transform="translate(0 3.278)" fill="#fff"/>
      </g>
    </g>
    <rect id="Rect치ngulo_3320" data-name="Rect치ngulo 3320" width="72" height="72" transform="translate(461 791)" fill="none"/>
  </g>
</svg>
