<svg xmlns="http://www.w3.org/2000/svg" xmlns:xlink="http://www.w3.org/1999/xlink" width="72" height="72" viewBox="0 0 72 72">
  <defs>
    <clipPath id="clip-path">
      <rect id="Rect치ngulo_3313" data-name="Rect치ngulo 3313" width="52.155" height="52.183" fill="none"/>
    </clipPath>
  </defs>
  <g id="logistica-ultima-milla" transform="translate(-671 -771)">
    <g id="Grupo_21277" data-name="Grupo 21277" transform="translate(681 781)">
      <g id="Grupo_21276" data-name="Grupo 21276" transform="translate(0 0)" clip-path="url(#clip-path)">
        <path id="Trazado_41064" data-name="Trazado 41064" d="M25.891,48.905c-.6.056-.939.663-1.488.368L2.576,39.6V13.8l22.078,9.672c7.423-2.923,14.634-6.419,21.95-9.615l.372-.056V25.232a2.9,2.9,0,0,0,.522.578,1.326,1.326,0,0,0,2.04-.83l-.051-13.634-.307-.55C41.192,7.054,33.075,3.535,24.989,0h-.55C17,3.572,9.017,6.464,1.636,10.105.95,10.444-.026,10.731,0,11.649l0,29a1.222,1.222,0,0,0,.813,1.023c8.011,3.439,15.9,7.215,23.96,10.514a8.034,8.034,0,0,0,1.934-.858,1.3,1.3,0,0,0-.82-2.42m10.2-41.17,8.8,3.86c.055.055.031.3-.156.271L24.775,20.723l-9.113-3.994.174-.254L35.672,7.681ZM5.306,11.328c6.374-3.042,13.024-5.556,19.4-8.6,2.642,1.042,5.183,2.4,7.838,3.369l-.282.267L12.41,15.14l-.42-.055L4.654,11.838c-.194-.212.525-.449.651-.51" transform="translate(0 0)" fill="#fff"/>
        <path id="Trazado_41065" data-name="Trazado 41065" d="M31.018,18.572A13.06,13.06,0,1,0,43.173,37.7c4.642-8.867-2.162-19.648-12.155-19.127m5.9,22.044a10.453,10.453,0,0,1-15.379-11.71,10.574,10.574,0,0,1,8.747-7.643c11.464-1.171,16.221,13.711,6.633,19.353" transform="translate(7.491 7.49)" fill="#fff"/>
        <path id="Trazado_41066" data-name="Trazado 41066" d="M34.445,25.1a2.931,2.931,0,0,0-.824.525l-5.336,5.313c-.338.06-2.172-2.412-2.925-2.553a1.316,1.316,0,0,0-1.578,1.823,37.482,37.482,0,0,0,3.49,3.6c.921.661,1.308.5,2.134-.17,2.2-1.783,4.267-4.517,6.374-6.468A1.32,1.32,0,0,0,34.445,25.1" transform="translate(9.56 10.122)" fill="#fff"/>
      </g>
    </g>
    <rect id="Rect치ngulo_3319" data-name="Rect치ngulo 3319" width="72" height="72" transform="translate(671 771)" fill="none"/>
  </g>
</svg>
