<svg xmlns="http://www.w3.org/2000/svg" xmlns:xlink="http://www.w3.org/1999/xlink" width="81.825" height="77.987" viewBox="0 0 81.825 77.987">
  <defs>
    <clipPath id="clip-path">
      <rect id="Rectángulo_3192" data-name="Rectángulo 3192" width="81.825" height="77.987" fill="#e6bf1a"/>
    </clipPath>
  </defs>
  <g id="_360icon" data-name="360icon" transform="translate(0 0)">
    <g id="Grupo_20800" data-name="Grupo 20800" transform="translate(0 0)" clip-path="url(#clip-path)">
      <path id="Trazado_40582" data-name="Trazado 40582" d="M5.328,18.841c0-2.62.021-5.24-.016-7.86-.011-.756.252-.982.995-.974q5.237.047,10.48,0c.706-.005,1,.2.937.929a11.858,11.858,0,0,0,0,1.882c.05.7-.273.9-.916.887-2.239-.021-4.476-.008-6.715-.005-1.074,0-1.074.005-1.076,1.1-.008,2.137-.008,2.137,2.168,2.137,1.856,0,3.712.018,5.568-.008.672-.011.984.163.974.919-.034,2.974-.029,5.949,0,8.923.008.693-.257.89-.911.885q-5.281-.032-10.564,0c-.727.005-.942-.263-.935-.961.029-2.62.013-5.24.013-7.86m6.185,1.78c-2.667,0-2.667,0-2.494,2.673,0,.026,0,.055,0,.081-.018.412.186.588.593.585,1.276-.008,2.554,0,3.83-.005.3,0,.572-.079.567-.433-.005-.914.336-1.958-.155-2.7-.352-.536-1.326-.121-2.016-.194a2.694,2.694,0,0,0-.326,0" transform="translate(8.633 16.265)" fill="#e6bf1a"/>
      <path id="Trazado_40583" data-name="Trazado 40583" d="M23.7,18.851c0,2.617-.018,5.237.013,7.855.008.7-.194.963-.924.958q-5.277-.043-10.554,0c-.73.005-.937-.265-.935-.961q.032-7.856,0-15.71c0-.738.221-.995.979-.987q5.234.051,10.472,0c.769-.008.971.263.961.992-.034,2.617-.013,5.235-.013,7.852m-3.681.024c0-1.447-.016-2.89.008-4.337.008-.57-.16-.858-.788-.843-1.171.029-2.344.021-3.518,0-.522-.008-.727.2-.725.725q.02,4.418,0,8.837c0,.538.218.719.732.709,1.145-.021,2.292-.032,3.437.005.633.018.879-.2.864-.845-.034-1.415-.01-2.835-.01-4.253" transform="translate(18.372 16.264)" fill="#e6bf1a"/>
      <path id="Trazado_40584" data-name="Trazado 40584" d="M10.62,18.895c0,2.591-.021,5.185.016,7.776.011.746-.226,1-.979.992q-4.336-.051-8.677,0c-.759.008-1.029-.255-.969-.995a11.148,11.148,0,0,0,0-1.8c-.063-.748.278-.932.961-.919,1.691.034,3.384-.013,5.075.024.672.013.953-.2.9-.89a14.407,14.407,0,0,1-.005-1.717c.029-.575-.221-.761-.777-.753-1.746.024-3.494-.024-5.24.021-.735.021-.969-.247-.916-.948a15.81,15.81,0,0,0,0-1.964c-.032-.617.242-.811.824-.806,1.72.018,3.439-.021,5.156.018.7.016,1.021-.186.956-.924a10.966,10.966,0,0,1-.005-1.554c.029-.575-.234-.767-.785-.761-1.717.016-3.437-.018-5.156.016-.722.013-1.063-.2-.995-.979a14.416,14.416,0,0,0,.005-1.964c-.026-.578.223-.756.774-.753,3,.016,6,.021,9-.005.659-.005.843.242.837.864-.024,2.675-.01,5.348-.01,8.023" transform="translate(0 16.267)" fill="#e6bf1a"/>
      <path id="Trazado_40585" data-name="Trazado 40585" d="M10.42,37.791a25.182,25.182,0,0,0,6.088,4.846,28.465,28.465,0,0,0,16.587,3.444,25.471,25.471,0,0,0,10.732-3.439A34.192,34.192,0,0,0,55.5,31.477c1.775-2.62,2.691-7.062,3.9-9.824.234-.536-.071-.887-1.328-1.145-1.226-.252-2.455-.5-3.662-.793-1.126-.273-1.685-.239-1.909.326a42.271,42.271,0,0,1-2.946,6.13,32.978,32.978,0,0,1-10.8,11.457A20.589,20.589,0,0,1,29.6,41.007a13.277,13.277,0,0,1-7.167-1.092,17.511,17.511,0,0,1-4.841-3.184,26.346,26.346,0,0,1-6.978-10.407L3.392,25.048C4.684,28.718,7.01,34.1,10.42,37.791" transform="translate(5.513 31.775)" fill="#e6bf1a"/>
      <path id="Trazado_40586" data-name="Trazado 40586" d="M65.011,39.183a2.386,2.386,0,0,1,2.457.452c.785.62,1.7,1.213,2.6,1.8.588.386.52.591-.139.761-6.975,1.809-10.7,3.681-17.652,5.508a1.921,1.921,0,0,1-1.8-.307c-5.9-4.1-9.735-6.949-15.673-11.034-.646-.444-.486-.638.21-.8,1.092-.257,2.182-.52,3.182-.835a2.112,2.112,0,0,1,2.119.391C43.425,37.3,44.5,38.233,47.644,40.4c.323.223.672.441.94.614a23.951,23.951,0,0,0,.549-3.232A41.2,41.2,0,0,0,47.479,23.86a30.346,30.346,0,0,0-6.217-11.486,19.98,19.98,0,0,0-5.125-4.232A13.82,13.82,0,0,0,26.7,6.407a20.373,20.373,0,0,0-8.968,3.778,32.8,32.8,0,0,0-3.476,2.835L6.989,8.964a29.056,29.056,0,0,1,10.2-7.007A27.224,27.224,0,0,1,29.38.043q2.627.465,5.251.927A26.109,26.109,0,0,1,47.14,8.536a31.534,31.534,0,0,1,7.191,12.838,42.377,42.377,0,0,1,1.811,11.911c.029,2.019-.231,6.763-.257,8.768a1.073,1.073,0,0,0,.084.284,3.048,3.048,0,0,0,1.318-.223Z" transform="translate(11.359 0)" fill="#e6bf1a"/>
    </g>
  </g>
</svg>
