<svg xmlns="http://www.w3.org/2000/svg" width="55.373" height="73.281" viewBox="0 0 55.373 73.281">
  <g id="cobranza" transform="translate(-1143.478 -170.574)">
    <path id="Trazado_34981" data-name="Trazado 34981" d="M1764.173,409.054a2.205,2.205,0,0,1-.48-.051,2.274,2.274,0,0,1-1.748-2.7l1.827-8.542a2.274,2.274,0,0,1,4.447.951l-1.827,8.541a2.276,2.276,0,0,1-2.219,1.8" transform="translate(-609.375 -177.623)" fill="#62a51c"/>
    <path id="Trazado_34982" data-name="Trazado 34982" d="M1776.88,348.334a2.276,2.276,0,0,1-2.23-2.74l2.113-10.1a2.273,2.273,0,1,1,4.45.932l-2.113,10.1a2.275,2.275,0,0,1-2.221,1.808" transform="translate(-613.827 -155.801)" fill="#62a51c"/>
    <path id="Trazado_34998" data-name="Trazado 34998" d="M1781.751,322.837c-9.573-1.762-17.94,2.4-24.233,9.012l1.844,0c9.045-7.306,21.983-7.9,29.213,1.932,11.8,16.452,3.3,46.751-15.249,54.712-9.075,3.77-17.814-.162-22.947-7.537l-2.4,0a24.588,24.588,0,0,0,13.855,13.427c18.449,6.248,35.485-10.616,39.852-27.462,4.934-16.7-.915-39.87-19.931-44.083" transform="translate(-604.498 -151.857)" fill="#62a51c"/>
    <path id="Trazado_41035" data-name="Trazado 41035" d="M1778.969,370.883c-.623-2.173-1.868-5.82-11.69-8.76a37.649,37.649,0,0,1-5.63-2.285,3.5,3.5,0,0,1-1.924-3.682c.7-2.613,3.97-3.013,3.97-3.013a18.273,18.273,0,0,1,11.38,3.5l3.215-6.058a31.084,31.084,0,0,0-14.013-3.79c-7.53.007-12.181,6.026-12.1,10.179s.824,9.081,9.791,11.246,10.639,4.53,9.322,7.132-3.918,2.448-6.247,2.45-6.365-1.041-11.142-4.3l-3.6,5.515s5.555,5.622,17.509,5.261,11.787-11.227,11.164-13.4" transform="translate(-605.31 -160.394)" fill="#62a51c"/>
  </g>
</svg>
