<svg xmlns="http://www.w3.org/2000/svg" width="50.859" height="67.936" viewBox="0 0 50.859 67.936">
  <g id="contact-center" transform="translate(-1214.219 -196.194)">
    <path id="Trazado_41034" data-name="Trazado 41034" d="M1157.933,317.147c-8.837-1.635-16.565,2.2-22.38,8.3h1.7c8.357-6.737,20.3-7.278,26.968,1.809,5.144,7.189,6.09,17.233,3.85,26.6a42.809,42.809,0,0,1-1.362,4.548c-2.469-.591-4.859-.5-6,1.7-1.872,3.6-5.143,10.682-6.708,14.216a7.38,7.38,0,0,0-.649,3.293c-4.641.051-9.28-.049-13.917-.236.236-1.346-.067-2.776-.858-3.141a20.128,20.128,0,0,0-8.909-1.419,3.742,3.742,0,0,0-1.449.346,3.377,3.377,0,0,0-1.214,3.048,3.156,3.156,0,0,0,1,2.325,3.114,3.114,0,0,0,1.311.409c3.3.511,1.79.155,5.09.666.241.037,2.739.4,2.98.362a2.305,2.305,0,0,0,1.6-1.259,113.788,113.788,0,0,0,15.171,1.478,6.677,6.677,0,0,0,3.178,2.536c3.476,1.482,8.851,3.581,10.989.021a72.015,72.015,0,0,0,5.193-10.9c1.315-3.2,2.909-7.02,1.3-9.518a47.919,47.919,0,0,0,2.42-8.471c2.638-14.886-3.221-33.13-19.3-36.708" transform="translate(87.241 -120.574)" fill="#e64a00"/>
  </g>
</svg>
