<svg xmlns="http://www.w3.org/2000/svg" xmlns:xlink="http://www.w3.org/1999/xlink" width="65.276" height="80" viewBox="0 0 65.276 80">
  <defs>
    <clipPath id="clip-path">
      <rect id="Rectángulo_3193" data-name="Rectángulo 3193" width="65.276" height="80" fill="#d80b1e"/>
    </clipPath>
  </defs>
  <g id="serv-campo" transform="translate(0 0)">
    <g id="Grupo_20808" data-name="Grupo 20808" transform="translate(0 0)" clip-path="url(#clip-path)">
      <path id="Trazado_40587" data-name="Trazado 40587" d="M63.24,36.752a5.946,5.946,0,0,0-3.822-2.107.983.983,0,0,1-.91-.947,46.924,46.924,0,0,0-.334-4.893c.139-.425.507-.715,1.284-1.321a10.067,10.067,0,0,0,3.028-11.3,42.575,42.575,0,0,0-2.943-5.966,6.356,6.356,0,0,0-8.308-2.751,8.374,8.374,0,0,0-1.7.989c-.109.079-.215.158-.319.245a.876.876,0,0,1-1.363-.015A25,25,0,0,0,45.4,6.632c-.94-.7-.967-.73-.591-2.08.017-.059.027-.119.045-.181A25.936,25.936,0,0,0,35.74.426,24.9,24.9,0,0,0,25.7.6a1.216,1.216,0,0,1-1.148.876,8.792,8.792,0,0,0-2.436.51,2.041,2.041,0,0,1-1.175.173A33.747,33.747,0,0,0,10.129,9.922h1.949c9.563-7.707,23.231-8.328,30.859,2.07,12.444,17.394,3.441,49.393-16.164,57.783C17.183,73.75,8.106,71.22,2.689,63.423L0,61.791a29.454,29.454,0,0,0,3.925,6.451.869.869,0,0,1,1.185.168A18.071,18.071,0,0,0,7.683,70.56a1.319,1.319,0,0,1,.51,1.751c-.01.027-.015.054-.025.079a25.174,25.174,0,0,0,6.453,3.6A25.782,25.782,0,0,0,27.087,77.08c.02-.094.047-.183.062-.277a1.2,1.2,0,0,1,1.111-1.167,16.5,16.5,0,0,0,2.367-.475c1.4-.4,1.7-.475,2.2.336.136.215.284.492.475.846a6.537,6.537,0,0,0,9.483,2.58,53.487,53.487,0,0,0,4.534-3.23,9.949,9.949,0,0,0,4.118-7.658,9.555,9.555,0,0,0-1.182-5.249,1.33,1.33,0,0,1,.106-1.605,37.918,37.918,0,0,0,2.248-3.485.9.9,0,0,1,1.12-.544,7.9,7.9,0,0,0,2.08.4c3.337-.047,5.87-2.023,7.366-5.761q.876-3.6,1.756-7.2c-.084-.324.106-.616.146-.925a7.679,7.679,0,0,0-1.84-6.913" transform="translate(0 0)" fill="#d80b1e"/>
      <path id="Trazado_40588" data-name="Trazado 40588" d="M8.616,34.549c7.077,4.2,15.271-3.512,15.776-10.683C25.77,16.725,18.733,6.72,10.936,10.442c2.82,5.118,1.635,7.552,1.266,11.947-.683,4.472-.386,7.322-3.587,12.16" transform="translate(12.696 14.202)" fill="#d80b1e"/>
    </g>
  </g>
</svg>
