<svg xmlns="http://www.w3.org/2000/svg" xmlns:xlink="http://www.w3.org/1999/xlink" width="55.989" height="74.058" viewBox="0 0 55.989 74.058">
  <defs>
    <clipPath id="clip-path">
      <rect id="Rectángulo_3191" data-name="Rectángulo 3191" width="55.989" height="74.058" fill="#673a87"/>
    </clipPath>
  </defs>
  <g id="ultima_milla" transform="translate(0 0)">
    <g id="Grupo_20794" data-name="Grupo 20794" transform="translate(0 0)" clip-path="url(#clip-path)">
      <path id="Trazado_40567" data-name="Trazado 40567" d="M34.193.414C24.519-1.377,16.057,2.822,9.691,9.5h1.864C20.7,2.123,33.782,1.53,41.08,11.48c11.905,16.64,3.294,47.254-15.465,55.283-9.177,3.8-17.86,1.382-23.043-6.078L0,59.123A24.856,24.856,0,0,0,13.991,72.706c18.64,6.331,35.873-10.7,40.3-27.719,5-16.874-.886-40.3-20.1-44.573" transform="translate(0 -0.001)" fill="#673a87"/>
      <path id="Trazado_40568" data-name="Trazado 40568" d="M21.206,6.9A3.134,3.134,0,0,0,16.293,8.05L9.923,22.907a2.158,2.158,0,0,0,3.98,1.668L21.4,7.064Z" transform="translate(14.239 8.976)" fill="#673a87"/>
      <path id="Trazado_40569" data-name="Trazado 40569" d="M23.792,30.572a3.136,3.136,0,0,0,.792-4.983L13.245,14.07a2.157,2.157,0,1,0-3.05,3.05L23.563,30.69Z" transform="translate(13.958 19.614)" fill="#673a87"/>
      <path id="Trazado_40570" data-name="Trazado 40570" d="M8.943,17.177c.03,2.526,1.621,4.337,3.554,4.039s3.478-2.583,3.449-5.111-1.621-4.334-3.554-4.039-3.478,2.585-3.449,5.111" transform="translate(13.054 17.566)" fill="#673a87"/>
    </g>
  </g>
</svg>
